<svg width="130" height="63" viewBox="0 0 130 63" fill="none" xmlns="http://www.w3.org/2000/svg">
<g filter="url(#filter0_d_21_1708)">
<rect x="6.43728" y="6.43728" width="117.063" height="50.1254" rx="2.47791" fill="#56704D" stroke="white" stroke-width="0.874557"/>
<g clip-path="url(#clip0_21_1708)">
<path d="M41.1206 35.4765V38.3519H39.5359V31.8389H41.1206V34.6962L43.2913 31.8389H45.1555L42.6331 35.03L45.2479 38.3519H43.3093L41.1206 35.4765Z" fill="#EBECE7"/>
<path d="M47.9641 33.1018C48.735 33.1018 49.2805 33.4536 49.56 33.9092V33.1762H51.1447V38.3541H49.56V37.6212C49.2715 38.0767 48.726 38.4285 47.955 38.4285C46.695 38.4285 45.6829 37.3889 45.6829 35.7562C45.6829 34.1234 46.6927 33.1018 47.9641 33.1018ZM48.4284 34.4842C47.8356 34.4842 47.2968 34.9285 47.2968 35.7562C47.2968 36.5838 47.8356 37.0461 48.4284 37.0461C49.0213 37.0461 49.56 36.5906 49.56 35.7652C49.56 34.9398 49.0325 34.4842 48.4284 34.4842Z" fill="#EBECE7"/>
<path d="M53.8791 38.3519H52.2944V33.1762H53.8791V34.04C54.2398 33.4919 54.8056 33.1221 55.5021 33.1221V34.8022H55.067C54.3164 34.8022 53.8791 35.0616 53.8791 35.9523V38.3564V38.3519Z" fill="#EBECE7"/>
<path d="M56.2617 31.4871H57.8464V38.3519H56.2617V31.4871Z" fill="#EBECE7"/>
<path d="M61.1014 38.4263C59.7196 38.4263 58.7931 37.655 58.7188 36.6537H60.2854C60.3237 37.0146 60.646 37.2559 61.0834 37.2559C61.4914 37.2559 61.7055 37.0709 61.7055 36.8387C61.7055 36.0042 58.8856 36.6064 58.8856 34.7053C58.8856 33.8235 59.6362 33.0996 60.9909 33.0996C62.3457 33.0996 63.067 33.8415 63.1707 34.8631H61.7055C61.6582 34.5113 61.3899 34.279 60.9459 34.279C60.5739 34.279 60.371 34.4279 60.371 34.6782C60.371 35.5036 63.1707 34.9195 63.2 36.8499C63.2 37.7498 62.402 38.4263 61.1036 38.4263H61.1014Z" fill="#EBECE7"/>
<path d="M69.2793 38.3519H67.6924V37.646C67.3768 38.0903 66.82 38.406 66.1258 38.406C64.9288 38.406 64.1218 37.5806 64.1218 36.1982V33.1762H65.6975V35.9862C65.6975 36.6921 66.0965 37.08 66.6893 37.08C67.2821 37.08 67.6901 36.6898 67.6901 35.9862V33.1762H69.2771V38.3541L69.2793 38.3519Z" fill="#EBECE7"/>
<path d="M72.0046 38.3519H70.4199V33.1762H72.0046V34.04C72.3653 33.4919 72.931 33.1221 73.6276 33.1221V34.8022H73.1925C72.4419 34.8022 72.0046 35.0616 72.0046 35.9523V38.3564V38.3519Z" fill="#EBECE7"/>
<path d="M76.353 33.1018C77.1239 33.1018 77.6694 33.4536 77.9489 33.9092V33.1762H79.5336V38.3541H77.9489V37.6212C77.6604 38.0767 77.1149 38.4285 76.344 38.4285C75.0839 38.4285 74.0718 37.3889 74.0718 35.7562C74.0718 34.1234 75.0816 33.1018 76.353 33.1018ZM76.8173 34.4842C76.2245 34.4842 75.6857 34.9285 75.6857 35.7562C75.6857 36.5838 76.2245 37.0461 76.8173 37.0461C77.4102 37.0461 77.9489 36.5906 77.9489 35.7652C77.9489 34.9398 77.4214 34.4842 76.8173 34.4842Z" fill="#EBECE7"/>
<path d="M84.2514 35.5419C84.2514 34.836 83.8615 34.4481 83.2596 34.4481C82.6577 34.4481 82.2678 34.8383 82.2678 35.5419V38.3519H80.6831V33.1762H82.2678V33.8618C82.5834 33.4265 83.1401 33.1198 83.8344 33.1198C85.0314 33.1198 85.8271 33.9362 85.8271 35.3277V38.3519H84.2514V35.5419Z" fill="#EBECE7"/>
<path d="M89.213 33.1018C90.5114 33.1018 91.4288 33.8167 91.6993 35.0503H90.011C89.8802 34.6895 89.621 34.4572 89.1859 34.4572C88.6201 34.4572 88.2302 34.9014 88.2302 35.7652C88.2302 36.6289 88.6201 37.0732 89.1859 37.0732C89.621 37.0732 89.8712 36.8589 90.011 36.4801H91.6993C91.4311 37.6776 90.5114 38.4285 89.213 38.4285C87.6914 38.4285 86.6162 37.4069 86.6162 35.7652C86.6162 34.1234 87.6914 33.1018 89.213 33.1018Z" fill="#EBECE7"/>
<path d="M94.8394 38.4263C93.3179 38.4263 92.2246 37.4047 92.2246 35.7629C92.2246 34.1212 93.2998 33.0996 94.8394 33.0996C96.379 33.0996 97.4182 34.1009 97.4182 35.6795C97.4182 35.8283 97.4092 35.9862 97.3911 36.1441H93.8025C93.8589 36.8206 94.2759 37.1363 94.7853 37.1363C95.2294 37.1363 95.4796 36.9131 95.6103 36.6357H97.2987C97.0485 37.646 96.1311 38.4263 94.8417 38.4263H94.8394ZM93.8093 35.2623H95.7929C95.7929 34.6962 95.3489 34.3715 94.8191 34.3715C94.2894 34.3715 93.9017 34.6872 93.8093 35.2623Z" fill="#EBECE7"/>
<path d="M43.5235 41.2116H41.1206V42.5286H43.244V43.7531H41.1206V45.1829H43.5235V46.4549H39.5359V39.9419H43.5235V41.2138V41.2116Z" fill="#EBECE7"/>
<path d="M48.122 43.6427C48.122 42.9368 47.7321 42.5489 47.1302 42.5489C46.5283 42.5489 46.1384 42.9391 46.1384 43.6427V46.4526H44.5537V41.2747H46.1384V41.9603C46.454 41.5251 47.0107 41.2184 47.705 41.2184C48.902 41.2184 49.6977 42.0347 49.6977 43.4262V46.4504H48.122V43.6404V43.6427Z" fill="#EBECE7"/>
<path d="M51.0504 42.594H50.4192V41.277H51.0504V40.0163H52.635V41.277H53.6742V42.594H52.635V44.671C52.635 44.9777 52.7658 45.1063 53.1174 45.1063H53.6832V46.4504H52.8762C51.801 46.4504 51.0504 45.9948 51.0504 44.6507V42.5917V42.594Z" fill="#EBECE7"/>
<path d="M56.8636 46.5293C55.342 46.5293 54.2488 45.5077 54.2488 43.8659C54.2488 42.2242 55.324 41.2026 56.8636 41.2026C58.4032 41.2026 59.4423 42.2039 59.4423 43.7825C59.4423 43.9313 59.4333 44.0892 59.4153 44.2471H55.8267C55.883 44.9236 56.3001 45.2393 56.8095 45.2393C57.2536 45.2393 57.5038 45.0161 57.6345 44.7387H59.3229C59.0727 45.749 58.1552 46.5293 56.8658 46.5293H56.8636ZM55.8334 43.3653H57.8171C57.8171 42.7992 57.373 42.4745 56.8433 42.4745C56.3136 42.4745 55.9259 42.7902 55.8334 43.3653Z" fill="#EBECE7"/>
<path d="M61.861 46.4549H60.2764V41.277H61.861V42.1407C62.2217 41.5927 62.7875 41.2229 63.484 41.2229V42.903H63.049C62.2983 42.903 61.861 43.1623 61.861 44.0531V46.4571V46.4549Z" fill="#EBECE7"/>
<path d="M67.4243 41.2026C68.6956 41.2026 69.7055 42.2242 69.7055 43.8569C69.7055 45.4897 68.6956 46.5293 67.4243 46.5293C66.6646 46.5293 66.1169 46.1685 65.8283 45.731V48.9221H64.2437V41.277H65.8283V42.0099C66.1169 41.5544 66.6624 41.2026 67.4243 41.2026ZM66.9509 42.585C66.358 42.585 65.8193 43.0405 65.8193 43.8659C65.8193 44.6913 66.358 45.1469 66.9509 45.1469C67.5437 45.1469 68.0915 44.6823 68.0915 43.8569C68.0915 43.0315 67.5527 42.585 66.9509 42.585Z" fill="#EBECE7"/>
<path d="M72.1242 46.4549H70.5396V41.277H72.1242V42.1407C72.4849 41.5927 73.0507 41.2229 73.7472 41.2229V42.903H73.3122C72.5615 42.903 72.1242 43.1623 72.1242 44.0531V46.4571V46.4549Z" fill="#EBECE7"/>
<path d="M74.3579 39.8855C74.3579 39.4029 74.7389 39.0218 75.3047 39.0218C75.8704 39.0218 76.2424 39.4029 76.2424 39.8855C76.2424 40.3681 75.8614 40.7402 75.3047 40.7402C74.7479 40.7402 74.3579 40.3591 74.3579 39.8855ZM74.5067 41.277H76.0914V46.4549H74.5067V41.277Z" fill="#EBECE7"/>
<path d="M79.3465 46.5293C77.9647 46.5293 77.0383 45.758 76.9639 44.7567H78.5305C78.5688 45.1176 78.8912 45.3589 79.3285 45.3589C79.7365 45.3589 79.9506 45.1739 79.9506 44.9417C79.9506 44.1072 77.1307 44.7094 77.1307 42.8083C77.1307 41.9265 77.8813 41.2026 79.2361 41.2026C80.5908 41.2026 81.3121 41.9445 81.4158 42.9661H79.9506C79.9033 42.6143 79.635 42.382 79.191 42.382C78.819 42.382 78.6162 42.5309 78.6162 42.7812C78.6162 43.6066 81.4158 43.0225 81.4451 44.9529C81.4451 45.8528 80.6472 46.5293 79.3488 46.5293H79.3465Z" fill="#EBECE7"/>
<path d="M84.7159 46.5293C83.1943 46.5293 82.1011 45.5077 82.1011 43.8659C82.1011 42.2242 83.1763 41.2026 84.7159 41.2026C86.2555 41.2026 87.2946 42.2039 87.2946 43.7825C87.2946 43.9313 87.2856 44.0892 87.2676 44.2471H83.679C83.7353 44.9236 84.1524 45.2393 84.6618 45.2393C85.1059 45.2393 85.3561 45.0161 85.4868 44.7387H87.1752C86.925 45.749 86.0075 46.5293 84.7181 46.5293H84.7159ZM83.6857 43.3653H85.6694C85.6694 42.7992 85.2253 42.4745 84.6956 42.4745C84.1659 42.4745 83.7782 42.7902 83.6857 43.3653Z" fill="#EBECE7"/>
<path d="M90.2318 46.5293C88.85 46.5293 87.9235 45.758 87.8491 44.7567H89.4158C89.4541 45.1176 89.7764 45.3589 90.2137 45.3589C90.6217 45.3589 90.8359 45.1739 90.8359 44.9417C90.8359 44.1072 88.0159 44.7094 88.0159 42.8083C88.0159 41.9265 88.7666 41.2026 90.1213 41.2026C91.4761 41.2026 92.1974 41.9445 92.3011 42.9661H90.8359C90.7885 42.6143 90.5203 42.382 90.0762 42.382C89.7043 42.382 89.5014 42.5309 89.5014 42.7812C89.5014 43.6066 92.3011 43.0225 92.3304 44.9529C92.3304 45.8528 91.5324 46.5293 90.234 46.5293H90.2318Z" fill="#EBECE7"/>
<path d="M95.2654 39.9419H96.85V46.4549H95.2654V39.9419Z" fill="#EBECE7"/>
<path d="M101.572 43.6427C101.572 42.9368 101.183 42.5489 100.581 42.5489C99.9788 42.5489 99.5888 42.9391 99.5888 43.6427V46.4526H98.0042V41.2747H99.5888V41.9603C99.9044 41.5251 100.461 41.2184 101.155 41.2184C102.352 41.2184 103.148 42.0347 103.148 43.4262V46.4504H101.572V43.6404V43.6427Z" fill="#EBECE7"/>
<path d="M106.532 41.2026C107.83 41.2026 108.747 41.9175 109.018 43.151H107.33C107.199 42.7902 106.94 42.5579 106.505 42.5579C105.939 42.5579 105.549 43.0022 105.549 43.8659C105.549 44.7297 105.939 45.1739 106.505 45.1739C106.94 45.1739 107.19 44.9597 107.33 44.5808H109.018C108.75 45.7783 107.83 46.5293 106.532 46.5293C105.01 46.5293 103.935 45.5077 103.935 43.8659C103.935 42.2242 105.01 41.2026 106.532 41.2026Z" fill="#EBECE7"/>
<path d="M110.6 46.5293C110.035 46.5293 109.654 46.1481 109.654 45.6745C109.654 45.201 110.035 44.8018 110.6 44.8018C111.166 44.8018 111.536 45.1829 111.536 45.6745C111.536 46.1662 111.155 46.5293 110.6 46.5293Z" fill="#EBECE7"/>
</g>
<rect x="20.8311" y="47.4572" width="42.2547" height="1.35215" rx="0.383367" fill="#FFC83A"/>
<rect x="67.0295" y="47.4572" width="44.5083" height="1.35215" rx="0.383367" fill="#FFC83A"/>
<path d="M61.2436 27.0788L60.8675 27.5757C60.6945 27.8025 60.3509 27.8587 60.1023 27.701L58.8053 26.88C58.44 26.6466 57.9428 26.8865 57.9428 27.2926V30.4665C57.9428 30.6156 57.7872 30.7387 57.597 30.7387H56.5313C56.3411 30.7387 56.1855 30.6156 56.1855 30.4665V25.4778C56.1855 25.3136 56.0968 25.1602 55.9477 25.0673L41.9081 16.1507C41.7201 16.0319 41.4693 16.0319 41.2812 16.1507L27.2395 25.0651C27.0925 25.158 27.0039 25.3114 27.0039 25.4778V37.9874C27.0039 38.2077 26.8029 38.3871 26.5543 38.3871H25.694C25.4454 38.3871 25.2444 38.2077 25.2444 37.9874V27.2926C25.2444 26.8865 24.745 26.6488 24.3819 26.88L23.0849 27.701C22.8363 27.8587 22.4948 27.8025 22.3197 27.5757L21.9436 27.0788C21.7707 26.8519 21.8312 26.5408 22.0819 26.3809L41.2812 14.1932C41.4693 14.0744 41.7201 14.0744 41.9081 14.1932L61.1053 26.3787C61.3538 26.5386 61.4165 26.8497 61.2436 27.0766V27.0788Z" fill="#FFC83A"/>
<mask id="mask0_21_1708" style="mask-type:luminance" maskUnits="userSpaceOnUse" x="20" y="36" width="19" height="12">
<path d="M20.0425 47.4651H38.7446V36.8654H20.0425V47.4651Z" fill="white"/>
</mask>
<g mask="url(#mask0_21_1708)">
<path d="M39.1725 37.1808C39.14 37.1635 36.7926 37.7274 36.8596 37.7922C37.2443 38.1703 36.9547 38.2049 37.3762 37.9478C37.6637 37.7728 38.9282 37.6605 39.2611 37.5956C39.434 37.5611 39.2222 37.2046 39.1725 37.1808Z" fill="#FFC83A"/>
<path d="M29.7308 40.2207C29.0391 40.1602 28.3301 40.3244 27.7335 40.6809C27.5714 40.7782 27.4201 40.8883 27.2709 41.0007C26.7781 41.3766 26.2982 41.839 26.0237 42.3942C25.7708 42.431 25.5308 42.5152 25.2844 42.5909C25.1071 42.6449 24.9299 42.6989 24.7526 42.7529C24.6294 42.7896 24.5127 42.8415 24.3917 42.8825C24.4543 43.0014 24.5473 43.0359 24.6748 43.0359C24.9623 43.0359 25.2801 42.9625 25.5503 42.8674C25.6302 42.8393 25.7102 42.8026 25.7945 42.7918C25.8053 42.7918 25.8161 42.7918 25.8226 42.7983C25.8291 42.8069 25.8248 42.8177 25.8226 42.8264C25.8097 42.8652 25.8226 42.8436 25.8053 42.8804C25.4833 43.5653 25.3687 44.2566 25.4487 45.015C25.4768 45.2764 25.5243 45.5335 25.5957 45.7863C25.6238 45.8835 25.6367 45.9786 25.6756 46.0737C25.6908 46.1125 25.8334 46.4453 25.8615 46.4453C25.1785 46.5339 24.4608 46.4928 23.7734 46.4647C23.058 46.4366 22.3446 46.3783 21.6335 46.2897C21.4973 46.2724 21.3503 46.2487 21.253 46.1536C21.0758 45.9764 21.2206 45.5962 21.3071 45.3996C21.4173 45.1511 21.5924 44.9286 21.8107 44.7644C21.9447 45.0128 22.2668 45.1489 22.5305 45.0496C22.697 44.5505 22.9758 44.0989 23.2568 43.6538C23.767 42.8458 24.2857 42.0442 24.8153 41.2492C24.9256 41.0828 25.0358 40.8754 24.9364 40.7047C25.4984 40.372 26.0582 40.0608 26.6765 39.8491C27.4611 39.579 28.2782 39.3997 29.1039 39.3111C29.4584 39.2744 29.8129 39.2528 30.1674 39.2442C30.5717 39.2355 30.9759 39.242 31.3801 39.2593C31.5833 39.2679 31.7843 39.2787 31.9875 39.2917C32.1777 39.3025 32.4047 39.3565 32.5928 39.3327C32.7506 39.3133 32.9235 39.2096 33.0726 39.1513C33.2607 39.0756 33.4487 39 33.6346 38.9222C34.0021 38.771 34.3674 38.6176 34.7349 38.4642C34.8322 38.4232 34.9294 38.3821 35.0202 38.3324C35.1024 38.287 35.1823 38.2352 35.271 38.2093C35.2775 38.3346 35.325 38.4448 35.4115 38.5377C35.3207 38.5377 35.2342 38.5744 35.1499 38.609C34.5793 38.8445 34.0172 39.0994 33.4639 39.376C33.907 39.4667 34.3696 39.4148 34.8127 39.5077C34.7695 39.551 34.7262 39.5855 34.6917 39.6352C34.6614 39.6784 34.6333 39.7281 34.6419 39.78C34.6528 39.847 34.7176 39.8923 34.7803 39.9204C34.8711 39.9593 34.9662 39.9831 35.0635 40.0004C35.3272 40.05 35.5974 40.0652 35.8632 40.0479C35.8892 40.0479 35.9151 40.0436 35.9367 40.0306C35.9713 40.009 35.9843 39.9679 35.9951 39.9291C36.0319 39.7973 36.0643 39.6655 36.0902 39.5315C36.2286 39.4991 36.3604 39.5034 36.5009 39.5056C36.9959 39.5121 37.4931 39.5229 37.9816 39.4516C38.0616 39.4818 38.9651 39.4797 39.0516 39.4667C38.9133 41.7871 39.3348 44.1119 39.2051 46.4345C37.4585 46.415 34.9402 46.4064 33.1958 46.4561C33.8184 45.3283 33.8962 43.9023 33.4163 42.7054C33.1223 41.9708 32.5841 41.409 31.9313 40.964C31.2785 40.5189 30.5198 40.292 29.733 40.2229L29.7308 40.2207Z" fill="#FFC83A"/>
<path d="M31.9961 46.4793C33.3122 45.1639 33.3122 43.0312 31.9961 41.7158C30.6801 40.4004 28.5464 40.4004 27.2303 41.7158C25.9143 43.0312 25.9143 45.1639 27.2303 46.4793C28.5464 47.7947 30.6801 47.7947 31.9961 46.4793Z" stroke="#FFC83A" stroke-width="0.191684" stroke-linecap="round" stroke-linejoin="round"/>
<path d="M26.6702 44.0968C26.6702 47.9879 32.5605 47.9944 32.5605 44.0968C32.5605 40.2056 26.6702 40.1991 26.6702 44.0968Z" stroke="#FFC83A" stroke-width="0.191684" stroke-linecap="round" stroke-linejoin="round"/>
<path d="M28.5249 41.6423C28.4795 41.7136 29.5365 44.8615 30.1352 41.9534C30.2001 41.6337 30.2476 41.4155 29.8024 41.4003C29.5581 41.3917 28.6221 41.4889 28.5249 41.6423Z" stroke="#FFC83A" stroke-width="0.191684" stroke-linecap="round" stroke-linejoin="round"/>
<path d="M29.0693 43.7338C29.2488 43.8785 29.3676 43.7575 29.3504 43.6214C29.3287 43.4551 29.0477 43.2066 28.8381 42.8955C28.1766 41.9124 28.503 41.2772 27.5389 42.2776C27.2082 42.6189 28.0729 42.6492 28.8035 43.4335C28.8964 43.5328 28.9591 43.6495 29.0693 43.7359V43.7338Z" stroke="#FFC83A" stroke-width="0.191684" stroke-linecap="round" stroke-linejoin="round"/>
<path d="M27.256 44.3517C28.0731 44.1918 29.5624 44.181 28.0731 43.0964C27.4981 42.6773 27.256 42.3445 27.0398 43.2066C26.8907 43.8072 26.6248 44.477 27.256 44.3538V44.3517Z" stroke="#FFC83A" stroke-width="0.191684" stroke-linecap="round" stroke-linejoin="round"/>
<path d="M26.979 44.8011C27.0546 45.1511 27.2902 45.4968 27.3659 45.5205C27.528 45.5681 28.1462 44.9286 28.4834 44.7298C28.7644 44.5634 28.9482 44.5829 29.0757 44.5137C29.3156 44.3841 29.1535 44.1443 29.0303 44.2177C28.6585 44.181 28.8336 44.4338 27.6296 44.4878C27.2751 44.5029 26.9098 44.4813 26.979 44.8011Z" stroke="#FFC83A" stroke-width="0.191684" stroke-linecap="round" stroke-linejoin="round"/>
<path d="M28.2154 46.4258C28.9201 46.8169 29.2249 47.0265 29.279 45.3304C29.3071 44.4381 28.6953 44.7795 27.9798 45.3067C27.8156 45.4277 27.4956 45.5919 27.5583 45.8468C27.5843 45.9527 28.1917 46.4107 28.2133 46.4237L28.2154 46.4258Z" stroke="#FFC83A" stroke-width="0.191684" stroke-linecap="round" stroke-linejoin="round"/>
<path d="M30.3082 46.3826C29.9667 45.5724 29.8327 45.3217 29.8413 45.0344C29.8435 44.9717 29.9343 44.5115 29.6554 44.5094C29.3831 44.5094 29.4674 44.8875 29.4911 45.0193C29.6122 45.6998 29.0783 46.6634 29.4176 46.7779C29.6597 46.86 30.492 46.8212 30.3061 46.3804L30.3082 46.3826Z" stroke="#FFC83A" stroke-width="0.191684" stroke-linecap="round" stroke-linejoin="round"/>
<path d="M30.1221 45.2224C29.7762 44.1594 31.7 44.9912 31.8924 45.3239C32.0372 45.5724 31.2266 46.3458 31.0905 46.4452C30.442 46.9141 30.2453 45.6069 30.1221 45.2245V45.2224Z" stroke="#FFC83A" stroke-width="0.191684" stroke-linecap="round" stroke-linejoin="round"/>
<path d="M30.6384 41.5473C31.2307 41.7936 31.5096 42.0053 31.0859 42.3316C30.4439 42.8263 30.0851 43.6171 29.9964 43.6862C29.9121 43.7532 29.6441 43.6689 29.8451 43.2908C30.539 41.9751 30.165 41.3507 30.6384 41.5473Z" stroke="#FFC83A" stroke-width="0.191684" stroke-linecap="round" stroke-linejoin="round"/>
<path d="M31.1316 43.9066C31.6158 43.8785 32.6858 44.2458 32.1497 43.0316C31.7044 42.0248 31.4537 42.1847 30.9998 42.5995C30.2951 43.2455 30.1351 43.9628 31.1338 43.9066H31.1316Z" stroke="#FFC83A" stroke-width="0.191684" stroke-linecap="round" stroke-linejoin="round"/>
<path d="M30.1719 44.0708C30.0055 44.0794 29.945 44.2955 30.079 44.3906C30.2757 44.531 30.3168 44.2415 31.3349 44.7254C31.8169 44.9523 32.1801 45.4039 32.2968 44.4597C32.3962 43.6452 32.4308 44.2998 30.1698 44.0708H30.1719Z" stroke="#FFC83A" stroke-width="0.191684" stroke-linecap="round" stroke-linejoin="round"/>
<path d="M29.6684 44.3452C29.2577 44.4662 29.1691 43.831 29.5214 43.7532C29.8846 43.6732 30.0921 44.2199 29.6684 44.3452Z" stroke="#FFC83A" stroke-width="0.191684" stroke-linecap="round" stroke-linejoin="round"/>
<path d="M35.5777 38.6435C34.7282 39.6006 34.6028 39.6871 34.6612 39.8253C34.7433 40.0155 35.5474 40.0587 35.7723 40.0522C35.9365 40.0457 35.9711 39.9982 35.9992 39.8815C36.3235 38.5484 36.1938 38.8509 36.4532 38.717C36.8401 38.5182 36.1592 37.9845 35.5777 38.6435Z" stroke="#FFC83A" stroke-width="0.191684" stroke-linecap="round" stroke-linejoin="round"/>
<path d="M36.2328 38.9049C36.8034 39.0216 37.0931 39.054 37.2595 38.8985C37.6097 38.5701 36.8661 37.3537 35.8415 37.4552C35.0634 37.533 35.2017 38.6046 35.567 38.6543" stroke="#FFC83A" stroke-width="0.191684" stroke-linecap="round" stroke-linejoin="round"/>
<path d="M39.1317 37.1873C38.721 37.3256 37.4197 37.5136 36.8167 37.7685" stroke="#FFC83A" stroke-width="0.191684" stroke-linecap="round" stroke-linejoin="round"/>
<path d="M35.2774 38.1985C34.884 38.3519 34.7262 38.5182 33.2001 39.0951C32.2814 39.4429 32.757 39.3349 31.7302 39.2787C26.4797 38.9892 24.7547 40.6982 22.029 43.0575C20.8833 44.0514 22.0722 44.6455 21.7307 44.8313C21.2724 45.0841 21.0735 46.0585 21.2659 46.1946C21.7458 46.536 26.3154 46.5122 27.2146 46.4582" stroke="#FFC83A" stroke-width="0.191684" stroke-linecap="round" stroke-linejoin="round"/>
<path d="M31.9636 46.5101C33.989 46.4258 35.4395 46.4064 39.3909 46.4323" stroke="#FFC83A" stroke-width="0.191684" stroke-linecap="round" stroke-linejoin="round"/>
<path d="M32.5085 39.3392C33.2586 39.3867 34.0606 39.4516 34.8106 39.4991" stroke="#FFC83A" stroke-width="0.191684" stroke-linecap="round" stroke-linejoin="round"/>
<path d="M36.0859 39.5272C36.8014 39.5034 38.2843 39.4797 38.9976 39.4559" stroke="#FFC83A" stroke-width="0.191684" stroke-linecap="round" stroke-linejoin="round"/>
<path d="M35.3919 38.5355C34.7672 38.7602 33.9826 39.0821 33.3989 39.3997" stroke="#FFC83A" stroke-width="0.191684" stroke-linecap="round" stroke-linejoin="round"/>
<path d="M33.1852 46.4626C35.5456 41.9621 29.9363 38.1747 26.7047 41.4587C25.598 42.5844 24.9646 44.6823 25.8357 46.4842" stroke="#FFC83A" stroke-width="0.191684" stroke-linecap="round" stroke-linejoin="round"/>
<path d="M34.962 38.7299C34.8345 38.9654 34.7329 39.2139 34.6572 39.471" stroke="#FFC83A" stroke-width="0.191684" stroke-linecap="round" stroke-linejoin="round"/>
<path d="M33.9372 39.4387C33.654 39.618 33.2714 39.8686 32.1885 41.1541" stroke="#FFC83A" stroke-width="0.191684" stroke-linecap="round" stroke-linejoin="round"/>
<path d="M32.2036 40.4389C30.5046 39.5985 28.544 39.5056 27.0806 40.5642C26.5489 40.9488 26.1274 41.4652 25.7383 41.9945" stroke="#FFC83A" stroke-width="0.191684" stroke-linecap="round" stroke-linejoin="round"/>
<path d="M39.0647 40.7306C35.8698 41.0417 34.4842 41.1779 32.5085 41.435" stroke="#FFC83A" stroke-width="0.191684" stroke-linecap="round" stroke-linejoin="round"/>
<path d="M39.0645 40.3201C39.0515 40.3201 32.2857 41.1411 32.1885 41.1541" stroke="#FFC83A" stroke-width="0.191684" stroke-linecap="round" stroke-linejoin="round"/>
<path d="M33.4919 45.7561C35.2817 45.7561 36.1831 45.607 39.0624 45.7064" stroke="#FFC83A" stroke-width="0.191684" stroke-linecap="round" stroke-linejoin="round"/>
<path d="M25.5977 45.8749C21.3545 46.0586 21.5101 46.078 21.2659 46.0413" stroke="#FFC83A" stroke-width="0.191684" stroke-linecap="round" stroke-linejoin="round"/>
<path d="M24.9644 40.7155C25.079 41.0569 24.7223 41.4069 23.8858 42.6189C23.1443 43.6927 22.4159 45.1122 22.3835 45.3607C22.3554 45.5724 22.511 45.8381 22.6407 46.0088" stroke="#FFC83A" stroke-width="0.191684" stroke-linecap="round" stroke-linejoin="round"/>
<path d="M23.9485 42.5282C24.4565 43.0489 24.4954 43.239 25.8291 42.7723" stroke="#FFC83A" stroke-width="0.191684" stroke-linecap="round" stroke-linejoin="round"/>
<path d="M26.0238 42.3792C25.4813 42.5455 24.8782 42.714 24.3464 42.915" stroke="#FFC83A" stroke-width="0.191684" stroke-linecap="round" stroke-linejoin="round"/>
<path d="M23.9939 42.4634C23.6524 42.1436 23.2547 42.1782 22.7532 42.431" stroke="#FFC83A" stroke-width="0.191684" stroke-linecap="round" stroke-linejoin="round"/>
<path d="M22.4853 45.0712C22.2108 45.136 21.919 45.0409 21.7893 44.7687" stroke="#FFC83A" stroke-width="0.191684" stroke-linecap="round" stroke-linejoin="round"/>
<path d="M23.6068 43.0381C22.8999 43.5113 22.1455 43.9974 21.791 44.7687" stroke="#FFC83A" stroke-width="0.191684" stroke-linecap="round" stroke-linejoin="round"/>
<path d="M23.7451 42.8242C22.9648 42.8004 22.2061 43.1418 21.5857 43.615" stroke="#FFC83A" stroke-width="0.191684" stroke-linecap="round" stroke-linejoin="round"/>
<path d="M23.8859 42.6168C23.5184 42.31 22.6019 42.714 22.2517 42.8631" stroke="#FFC83A" stroke-width="0.191684" stroke-linecap="round" stroke-linejoin="round"/>
<path d="M39.0646 42.1004C37.331 41.9578 34.776 41.9902 33.0381 42.0572" stroke="#FFC83A" stroke-width="0.191684" stroke-linecap="round" stroke-linejoin="round"/>
<path d="M37.1235 38.0905C37.4953 37.8982 38.855 37.6691 39.2549 37.5698" stroke="#FFC83A" stroke-width="0.191684" stroke-linecap="round" stroke-linejoin="round"/>
</g>
</g>
<defs>
<filter id="filter0_d_21_1708" x="0.75266" y="0.75266" width="128.432" height="61.4947" filterUnits="userSpaceOnUse" color-interpolation-filters="sRGB">
<feFlood flood-opacity="0" result="BackgroundImageFix"/>
<feColorMatrix in="SourceAlpha" type="matrix" values="0 0 0 0 0 0 0 0 0 0 0 0 0 0 0 0 0 0 127 0" result="hardAlpha"/>
<feOffset/>
<feGaussianBlur stdDeviation="2.62367"/>
<feComposite in2="hardAlpha" operator="out"/>
<feColorMatrix type="matrix" values="0 0 0 0 0 0 0 0 0 0 0 0 0 0 0 0 0 0 0.25 0"/>
<feBlend mode="normal" in2="BackgroundImageFix" result="effect1_dropShadow_21_1708"/>
<feBlend mode="normal" in="SourceGraphic" in2="effect1_dropShadow_21_1708" result="shape"/>
</filter>
<clipPath id="clip0_21_1708">
<rect width="72.0021" height="19.1555" fill="white" transform="translate(39.5359 29.7666)"/>
</clipPath>
</defs>
</svg>
