<svg width="237" height="90" viewBox="0 0 237 90" fill="none" xmlns="http://www.w3.org/2000/svg">
<g clip-path="url(#clip0_19_1699)">
<path d="M54.4846 55.245V62.6775H50.3884V45.8423H54.4846V53.2281L60.0957 45.8423H64.9144L58.3943 54.0908L65.1533 62.6775H60.1423L54.4846 55.245Z" fill="#EBECE7"/>
<path d="M72.1745 49.1064C74.1672 49.1064 75.5772 50.0158 76.2998 51.1934V49.2988H80.3959V62.683H76.2998V60.7885C75.5539 61.966 74.1439 62.8754 72.1511 62.8754C68.894 62.8754 66.2778 60.1881 66.2778 55.9676C66.2778 51.7471 68.8882 49.1064 72.1745 49.1064ZM73.3748 52.6798C71.8423 52.6798 70.4498 53.8282 70.4498 55.9676C70.4498 58.107 71.8423 59.302 73.3748 59.302C74.9072 59.302 76.2998 58.1245 76.2998 55.9909C76.2998 53.8574 74.9363 52.6798 73.3748 52.6798Z" fill="#EBECE7"/>
<path d="M87.4636 62.6775H83.3674V49.2991H87.4636V51.5317C88.3959 50.1152 89.8584 49.1592 91.6588 49.1592V53.5021H90.5343C88.594 53.5021 87.4636 54.1724 87.4636 56.475V62.6891V62.6775Z" fill="#EBECE7"/>
<path d="M93.6226 44.9329H97.7187V62.6774H93.6226V44.9329Z" fill="#EBECE7"/>
<path d="M106.132 62.8698C102.561 62.8698 100.166 60.8761 99.9736 58.2879H104.023C104.122 59.2206 104.955 59.8443 106.086 59.8443C107.14 59.8443 107.694 59.3663 107.694 58.7659C107.694 56.609 100.405 58.1655 100.405 53.2513C100.405 50.9721 102.345 49.1008 105.847 49.1008C109.349 49.1008 111.213 51.0187 111.481 53.6594H107.694C107.572 52.75 106.878 52.1496 105.73 52.1496C104.769 52.1496 104.245 52.5343 104.245 53.1814C104.245 55.3149 111.481 53.8051 111.557 58.7951C111.557 61.121 109.494 62.8698 106.138 62.8698H106.132Z" fill="#EBECE7"/>
<path d="M127.272 62.6774H123.17V60.8529C122.354 62.0012 120.915 62.8174 119.12 62.8174C116.026 62.8174 113.94 60.6838 113.94 57.1104V49.2991H118.013V56.5625C118.013 58.387 119.044 59.3897 120.577 59.3897C122.109 59.3897 123.164 58.3812 123.164 56.5625V49.2991H127.266V62.6833L127.272 62.6774Z" fill="#EBECE7"/>
<path d="M134.316 62.6775H130.22V49.2991H134.316V51.5317C135.248 50.1152 136.711 49.1592 138.511 49.1592V53.5021H137.387C135.447 53.5021 134.316 54.1724 134.316 56.475V62.6891V62.6775Z" fill="#EBECE7"/>
<path d="M145.556 49.1064C147.549 49.1064 148.959 50.0158 149.681 51.1934V49.2988H153.777V62.683H149.681V60.7885C148.935 61.966 147.525 62.8754 145.532 62.8754C142.275 62.8754 139.659 60.1881 139.659 55.9676C139.659 51.7471 142.27 49.1064 145.556 49.1064ZM146.756 52.6798C145.224 52.6798 143.831 53.8282 143.831 55.9676C143.831 58.107 145.224 59.302 146.756 59.302C148.289 59.302 149.681 58.1245 149.681 55.9909C149.681 53.8574 148.318 52.6798 146.756 52.6798Z" fill="#EBECE7"/>
<path d="M165.973 55.414C165.973 53.5895 164.965 52.5868 163.409 52.5868C161.853 52.5868 160.845 53.5953 160.845 55.414V62.6774H156.749V49.2991H160.845V51.0712C161.661 49.9461 163.1 49.1533 164.895 49.1533C167.989 49.1533 170.046 51.2635 170.046 54.8603V62.6774H165.973V55.414Z" fill="#EBECE7"/>
<path d="M178.797 49.1064C182.153 49.1064 184.525 50.9544 185.224 54.143H180.86C180.522 53.2103 179.852 52.6099 178.727 52.6099C177.265 52.6099 176.257 53.7583 176.257 55.9909C176.257 58.2236 177.265 59.3719 178.727 59.3719C179.852 59.3719 180.498 58.8182 180.86 57.8388H185.224C184.531 60.9342 182.153 62.8754 178.797 62.8754C174.864 62.8754 172.085 60.2347 172.085 55.9909C172.085 51.7471 174.864 49.1064 178.797 49.1064Z" fill="#EBECE7"/>
<path d="M193.341 62.8698C189.407 62.8698 186.582 60.2291 186.582 55.9853C186.582 51.7415 189.361 49.1008 193.341 49.1008C197.32 49.1008 200.006 51.6891 200.006 55.7696C200.006 56.1544 199.983 56.5624 199.936 56.9705H190.66C190.806 58.7193 191.884 59.5354 193.201 59.5354C194.349 59.5354 194.995 58.9583 195.333 58.2413H199.697C199.051 60.8528 196.679 62.8698 193.346 62.8698H193.341ZM190.678 54.6912H195.805C195.805 53.228 194.657 52.3886 193.288 52.3886C191.919 52.3886 190.917 53.2047 190.678 54.6912Z" fill="#EBECE7"/>
<path d="M60.6959 70.0693H54.4846V73.4736H59.9734V76.639H54.4846V80.3348H60.6959V83.6225H50.3884V66.7874H60.6959V70.0751V70.0693Z" fill="#EBECE7"/>
<path d="M72.5823 76.3535C72.5823 74.5289 71.5743 73.5262 70.0186 73.5262C68.4628 73.5262 67.4548 74.5347 67.4548 76.3535V83.6169H63.3586V70.2326H67.4548V72.0048C68.2706 70.8797 69.7097 70.0869 71.5044 70.0869C74.5984 70.0869 76.6552 72.1971 76.6552 75.7939V83.611H72.5823V76.3476V76.3535Z" fill="#EBECE7"/>
<path d="M80.1513 73.6427H78.5198V70.2383H80.1513V66.9797H84.2474V70.2383H86.9335V73.6427H84.2474V79.0115C84.2474 79.8043 84.5854 80.1366 85.4943 80.1366H86.9568V83.6109H84.8709C82.0915 83.6109 80.1513 82.4334 80.1513 78.9591V73.6369V73.6427Z" fill="#EBECE7"/>
<path d="M95.1782 83.8151C91.2451 83.8151 88.4192 81.1744 88.4192 76.9306C88.4192 72.6868 91.1985 70.0461 95.1782 70.0461C99.1578 70.0461 101.844 72.6344 101.844 76.7149C101.844 77.0997 101.821 77.5077 101.774 77.9158H92.4979C92.6435 79.6646 93.7215 80.4807 95.0383 80.4807C96.1862 80.4807 96.8329 79.9036 97.1709 79.1866H101.535C100.888 81.7981 98.5169 83.8151 95.184 83.8151H95.1782ZM92.5154 75.6365H97.6429C97.6429 74.1733 96.495 73.3339 95.1257 73.3339C93.7564 73.3339 92.7543 74.15 92.5154 75.6365Z" fill="#EBECE7"/>
<path d="M108.096 83.6225H104V70.2383H108.096V72.4709C109.028 71.0544 110.491 70.0984 112.291 70.0984V74.4413H111.167C109.226 74.4413 108.096 75.1116 108.096 77.4142V83.6283V83.6225Z" fill="#EBECE7"/>
<path d="M122.476 70.0461C125.763 70.0461 128.373 72.6868 128.373 76.9073C128.373 81.1278 125.763 83.8151 122.476 83.8151C120.513 83.8151 119.097 82.8824 118.351 81.7515V90H114.255V70.2385H118.351V72.1331C119.097 70.9555 120.507 70.0461 122.476 70.0461ZM121.253 73.6195C119.72 73.6195 118.328 74.7971 118.328 76.9306C118.328 79.0642 119.72 80.2417 121.253 80.2417C122.785 80.2417 124.201 79.0408 124.201 76.9073C124.201 74.7738 122.808 73.6195 121.253 73.6195Z" fill="#EBECE7"/>
<path d="M134.625 83.6225H130.529V70.2383H134.625V72.4709C135.557 71.0544 137.02 70.0984 138.82 70.0984V74.4413H137.696C135.755 74.4413 134.625 75.1116 134.625 77.4142V83.6283V83.6225Z" fill="#EBECE7"/>
<path d="M140.399 66.6418C140.399 65.3943 141.384 64.4092 142.846 64.4092C144.309 64.4092 145.27 65.3943 145.27 66.6418C145.27 67.8893 144.286 68.8511 142.846 68.8511C141.407 68.8511 140.399 67.866 140.399 66.6418ZM140.784 70.2385H144.88V83.6227H140.784V70.2385Z" fill="#EBECE7"/>
<path d="M153.294 83.8151C149.722 83.8151 147.327 81.8214 147.135 79.2332H151.184C151.283 80.1659 152.117 80.7896 153.247 80.7896C154.302 80.7896 154.855 80.3116 154.855 79.7112C154.855 77.5544 147.566 79.1108 147.566 74.1966C147.566 71.9174 149.506 70.0461 153.008 70.0461C156.51 70.0461 158.374 71.964 158.643 74.6047H154.855C154.733 73.6953 154.039 73.0949 152.892 73.0949C151.93 73.0949 151.406 73.4796 151.406 74.1267C151.406 76.2602 158.643 74.7504 158.718 79.7404C158.718 82.0663 156.656 83.8151 153.299 83.8151H153.294Z" fill="#EBECE7"/>
<path d="M167.173 83.8151C163.24 83.8151 160.414 81.1744 160.414 76.9306C160.414 72.6868 163.193 70.0461 167.173 70.0461C171.152 70.0461 173.839 72.6344 173.839 76.7149C173.839 77.0997 173.815 77.5077 173.769 77.9158H164.493C164.638 79.6646 165.716 80.4807 167.033 80.4807C168.181 80.4807 168.828 79.9036 169.166 79.1866H173.53C172.883 81.7981 170.511 83.8151 167.179 83.8151H167.173ZM164.51 75.6365H169.637C169.637 74.1733 168.49 73.3339 167.12 73.3339C165.751 73.3339 164.749 74.15 164.51 75.6365Z" fill="#EBECE7"/>
<path d="M181.431 83.8151C177.859 83.8151 175.464 81.8214 175.272 79.2332H179.322C179.421 80.1659 180.254 80.7896 181.384 80.7896C182.439 80.7896 182.992 80.3116 182.992 79.7112C182.992 77.5544 175.703 79.1108 175.703 74.1966C175.703 71.9174 177.643 70.0461 181.145 70.0461C184.647 70.0461 186.512 71.964 186.78 74.6047H182.992C182.87 73.6953 182.177 73.0949 181.029 73.0949C180.067 73.0949 179.543 73.4796 179.543 74.1267C179.543 76.2602 186.78 74.7504 186.855 79.7404C186.855 82.0663 184.793 83.8151 181.437 83.8151H181.431Z" fill="#EBECE7"/>
<path d="M194.442 66.7874H198.538V83.6225H194.442V66.7874Z" fill="#EBECE7"/>
<path d="M210.745 76.3535C210.745 74.5289 209.737 73.5262 208.181 73.5262C206.626 73.5262 205.618 74.5347 205.618 76.3535V83.6169H201.521V70.2326H205.618V72.0048C206.433 70.8797 207.873 70.0869 209.667 70.0869C212.761 70.0869 214.818 72.1971 214.818 75.7939V83.611H210.745V76.3476V76.3535Z" fill="#EBECE7"/>
<path d="M223.564 70.0461C226.92 70.0461 229.291 71.894 229.991 75.0827H225.626C225.288 74.15 224.618 73.5496 223.494 73.5496C222.031 73.5496 221.023 74.698 221.023 76.9306C221.023 79.1633 222.031 80.3116 223.494 80.3116C224.618 80.3116 225.265 79.7579 225.626 78.7785H229.991C229.297 81.8739 226.92 83.8151 223.564 83.8151C219.631 83.8151 216.851 81.1744 216.851 76.9306C216.851 72.6868 219.631 70.0461 223.564 70.0461Z" fill="#EBECE7"/>
<path d="M234.081 83.8151C232.618 83.8151 231.634 82.83 231.634 81.6058C231.634 80.3817 232.618 79.3499 234.081 79.3499C235.543 79.3499 236.499 80.335 236.499 81.6058C236.499 82.8766 235.514 83.8151 234.081 83.8151Z" fill="#EBECE7"/>
</g>
<rect x="2.03882" y="86.2136" width="109.223" height="3.49515" rx="1.4447" fill="#FFC83A"/>
<rect x="121.456" y="86.2136" width="115.049" height="3.49515" rx="1.4447" fill="#FFC83A"/>
<path d="M106.5 33.5378L105.528 34.8223C105.081 35.4087 104.192 35.5539 103.55 35.1462L100.197 33.024C99.2532 32.4209 97.968 33.0408 97.968 34.0907V42.2947C97.968 42.6801 97.5658 42.9984 97.0741 42.9984H94.3194C93.8277 42.9984 93.4254 42.6801 93.4254 42.2947V29.3995C93.4254 28.9751 93.1964 28.5786 92.8108 28.3384L56.5203 5.29015C56.0342 4.98299 55.386 4.98299 54.8999 5.29015L18.6038 28.3328C18.2238 28.573 17.9947 28.9695 17.9947 29.3995V61.7352C17.9947 62.3049 17.4751 62.7684 16.8325 62.7684H14.6087C13.9662 62.7684 13.4465 62.3049 13.4465 61.7352V34.0907C13.4465 33.0408 12.1558 32.4265 11.2171 33.024L7.86466 35.1462C7.2221 35.5539 6.33928 35.4087 5.8867 34.8223L4.91448 33.5378C4.46748 32.9514 4.62393 32.1472 5.27208 31.7339L54.8999 0.230371C55.386 -0.0767903 56.0342 -0.0767903 56.5203 0.230371L106.143 31.7284C106.785 32.1416 106.947 32.9458 106.5 33.5322V33.5378Z" fill="#FFC83A"/>
<mask id="mask0_19_1699" style="mask-type:luminance" maskUnits="userSpaceOnUse" x="0" y="58" width="49" height="29">
<path d="M6.10352e-05 86.2339H48.3428V58.8351L6.10352e-05 58.8351V86.2339Z" fill="white"/>
</mask>
<g mask="url(#mask0_19_1699)">
<path d="M49.449 59.6502C49.3652 59.6055 43.2972 61.0631 43.4704 61.2307C44.465 62.208 43.7163 62.2973 44.8058 61.6328C45.549 61.1804 48.8176 60.89 49.6781 60.7225C50.1251 60.6331 49.5775 59.7116 49.449 59.6502Z" fill="#FFC83A"/>
<path d="M25.043 67.5082C23.255 67.3519 21.4223 67.7763 19.8801 68.6978C19.4611 68.9491 19.07 69.2339 18.6844 69.5243C17.4105 70.4961 16.1701 71.6912 15.4605 73.1265C14.8067 73.2214 14.1865 73.4392 13.5496 73.6347C13.0914 73.7743 12.6332 73.914 12.175 74.0536C11.8566 74.1485 11.5548 74.2825 11.2419 74.3886C11.404 74.6958 11.6442 74.7852 11.9739 74.7852C12.717 74.7852 13.5384 74.5953 14.2368 74.3496C14.4435 74.277 14.6503 74.182 14.8682 74.1541C14.8961 74.1541 14.9241 74.1541 14.9408 74.1708C14.9576 74.1932 14.9464 74.2211 14.9408 74.2434C14.9073 74.344 14.9408 74.2881 14.8961 74.3831C14.0636 76.1534 13.7675 77.9406 13.9742 79.9008C14.0468 80.5766 14.1698 81.2411 14.3541 81.8946C14.4268 82.1459 14.4603 82.3916 14.5609 82.6373C14.6 82.7379 14.9688 83.5979 15.0414 83.5979C13.2758 83.8269 11.4207 83.7208 9.64391 83.6482C7.79447 83.5756 5.9506 83.4248 4.11233 83.1958C3.76032 83.1511 3.38037 83.0897 3.12894 82.844C2.67076 82.386 3.04512 81.4031 3.26862 80.8949C3.55358 80.2526 4.00617 79.6774 4.5705 79.253C4.91692 79.8952 5.74945 80.2471 6.43112 79.9902C6.86136 78.7001 7.58214 77.5329 8.30851 76.3824C9.62715 74.2937 10.9681 72.2218 12.3371 70.1666C12.622 69.7366 12.907 69.2004 12.65 68.7592C14.1027 67.8992 15.5499 67.095 17.1479 66.5477C19.1761 65.8496 21.2882 65.386 23.4226 65.1571C24.3389 65.0621 25.2553 65.0063 26.1716 64.9839C27.2165 64.9616 28.2613 64.9783 29.3062 65.023C29.8314 65.0454 30.351 65.0733 30.8763 65.1068C31.368 65.1347 31.9546 65.2743 32.4408 65.2129C32.8486 65.1626 33.2956 64.8946 33.6812 64.7438C34.1673 64.5483 34.6534 64.3529 35.1339 64.1518C36.0838 63.7609 37.0281 63.3644 37.9779 62.9678C38.2294 62.8617 38.4808 62.7556 38.7155 62.6272C38.9278 62.5099 39.1345 62.3759 39.3636 62.3088C39.3804 62.6328 39.5033 62.9176 39.7268 63.1577C39.4921 63.1577 39.2686 63.2527 39.0507 63.342C37.5756 63.9508 36.1229 64.6098 34.6925 65.3246C35.8379 65.5592 37.0336 65.4251 38.1791 65.6653C38.0673 65.777 37.9556 65.8663 37.8662 65.9948C37.788 66.1065 37.7153 66.2349 37.7377 66.3689C37.7656 66.5421 37.9332 66.6594 38.0953 66.732C38.3299 66.8325 38.5758 66.8939 38.8272 66.9386C39.5089 67.067 40.2073 67.1061 40.8946 67.0615C40.9616 67.0615 41.0287 67.0503 41.0846 67.0168C41.174 66.9609 41.2075 66.8548 41.2354 66.7543C41.3304 66.4136 41.4142 66.073 41.4813 65.7267C41.8389 65.6429 42.1797 65.6541 42.5429 65.6597C43.8224 65.6764 45.1075 65.7044 46.3703 65.5201C46.577 65.5983 48.9126 65.5927 49.1361 65.5592C48.7785 71.5572 49.868 77.5664 49.5328 83.57C45.0181 83.5197 38.5087 83.4974 33.9997 83.6258C35.6088 80.7106 35.81 77.0247 34.5696 73.9307C33.8097 72.0319 32.4184 70.5799 30.731 69.4294C29.0436 68.2789 27.0824 67.6925 25.0485 67.5138L25.043 67.5082Z" fill="#FFC83A"/>
<path d="M30.8979 83.6856C34.2997 80.2854 34.2997 74.7727 30.8979 71.3725C27.4961 67.9724 21.9807 67.9724 18.5789 71.3725C15.1771 74.7727 15.1771 80.2854 18.5789 83.6856C21.9807 87.0857 27.4961 87.0857 30.8979 83.6856Z" stroke="#FFC83A" stroke-width="0.722349" stroke-linecap="round" stroke-linejoin="round"/>
<path d="M17.1311 77.5272C17.1311 87.5853 32.3569 87.6021 32.3569 77.5272C32.3569 67.469 17.1311 67.4523 17.1311 77.5272Z" stroke="#FFC83A" stroke-width="0.722349" stroke-linecap="round" stroke-linejoin="round"/>
<path d="M21.925 71.1828C21.8077 71.3671 24.54 79.5041 26.0877 71.987C26.2553 71.1604 26.3783 70.5964 25.2272 70.5573C24.5959 70.5349 22.1765 70.7863 21.925 71.1828Z" stroke="#FFC83A" stroke-width="0.722349" stroke-linecap="round" stroke-linejoin="round"/>
<path d="M23.3334 76.589C23.7971 76.9632 24.1044 76.6504 24.0597 76.2986C24.0039 75.8686 23.2775 75.2263 22.7355 74.4221C21.0257 71.881 21.8694 70.2391 19.3774 72.8249C18.5226 73.7073 20.7575 73.7854 22.6461 75.8127C22.8864 76.0696 23.0484 76.3712 23.3334 76.5946V76.589Z" stroke="#FFC83A" stroke-width="0.722349" stroke-linecap="round" stroke-linejoin="round"/>
<path d="M18.6452 78.1859C20.7572 77.7726 24.607 77.7447 20.7572 74.9412C19.271 73.8577 18.6452 72.9977 18.0864 75.226C17.7009 76.7785 17.0136 78.5098 18.6452 78.1915V78.1859Z" stroke="#FFC83A" stroke-width="0.722349" stroke-linecap="round" stroke-linejoin="round"/>
<path d="M17.9302 79.3477C18.1257 80.2525 18.7348 81.146 18.9303 81.2075C19.3494 81.3303 20.9474 79.6772 21.819 79.1634C22.5454 78.7334 23.0203 78.7837 23.35 78.605C23.9702 78.2699 23.5512 77.65 23.2327 77.8399C22.2716 77.7449 22.7242 78.3983 19.612 78.5379C18.6957 78.577 17.7514 78.5212 17.9302 79.3477Z" stroke="#FFC83A" stroke-width="0.722349" stroke-linecap="round" stroke-linejoin="round"/>
<path d="M21.1261 83.5474C22.9476 84.5582 23.7354 85.0999 23.8751 80.7159C23.9477 78.4094 22.3665 79.2918 20.517 80.6545C20.0924 80.9672 19.2655 81.3917 19.4275 82.0507C19.4945 82.3243 21.0646 83.5083 21.1205 83.5418L21.1261 83.5474Z" stroke="#FFC83A" stroke-width="0.722349" stroke-linecap="round" stroke-linejoin="round"/>
<path d="M26.535 83.4357C25.6521 81.3414 25.3057 80.6936 25.3281 79.9508C25.3337 79.7889 25.5683 78.5993 24.8476 78.5938C24.1435 78.5938 24.3614 79.5711 24.4229 79.9118C24.7358 81.6709 23.3557 84.1617 24.2329 84.4577C24.8587 84.67 27.0099 84.5694 26.5294 83.4301L26.535 83.4357Z" stroke="#FFC83A" stroke-width="0.722349" stroke-linecap="round" stroke-linejoin="round"/>
<path d="M26.0543 80.4368C25.1603 77.6891 30.1331 79.8392 30.6304 80.6993C31.0048 81.3415 28.9095 83.3409 28.5575 83.5978C26.8812 84.8097 26.3728 81.4309 26.0543 80.4424V80.4368Z" stroke="#FFC83A" stroke-width="0.722349" stroke-linecap="round" stroke-linejoin="round"/>
<path d="M27.3898 70.9371C28.9208 71.5737 29.6416 72.121 28.5464 72.9643C26.887 74.2432 25.9594 76.2873 25.7304 76.466C25.5124 76.6391 24.8196 76.4213 25.3392 75.444C27.1328 72.0429 26.1662 70.4289 27.3898 70.9371Z" stroke="#FFC83A" stroke-width="0.722349" stroke-linecap="round" stroke-linejoin="round"/>
<path d="M28.6638 77.0357C29.9154 76.9631 32.6812 77.9125 31.2955 74.7739C30.1445 72.1714 29.4963 72.5847 28.3229 73.6569C26.5014 75.3268 26.088 77.1809 28.6694 77.0357H28.6638Z" stroke="#FFC83A" stroke-width="0.722349" stroke-linecap="round" stroke-linejoin="round"/>
<path d="M26.1829 77.4599C25.7526 77.4823 25.5962 78.0407 25.9426 78.2865C26.451 78.6495 26.5572 77.9011 29.1889 79.1521C30.4349 79.7385 31.3736 80.9057 31.6753 78.4652C31.9323 76.3597 32.0217 78.0519 26.1773 77.4599H26.1829Z" stroke="#FFC83A" stroke-width="0.722349" stroke-linecap="round" stroke-linejoin="round"/>
<path d="M24.8809 78.1694C23.8193 78.4822 23.5902 76.8402 24.501 76.6392C25.4397 76.4326 25.9761 77.8455 24.8809 78.1694Z" stroke="#FFC83A" stroke-width="0.722349" stroke-linecap="round" stroke-linejoin="round"/>
<path d="M40.1571 63.4312C37.9613 65.9053 37.6372 66.1287 37.7881 66.4861C38.0004 66.9775 40.0789 67.0892 40.66 67.0725C41.0847 67.0557 41.1741 66.9329 41.2467 66.6313C42.0848 63.1855 41.7496 63.9673 42.4201 63.6211C43.4202 63.1073 41.6602 61.7279 40.1571 63.4312Z" stroke="#FFC83A" stroke-width="0.722349" stroke-linecap="round" stroke-linejoin="round"/>
<path d="M41.8501 64.1071C43.3252 64.4087 44.0739 64.4925 44.5042 64.0904C45.4093 63.2415 43.4872 60.0973 40.8388 60.3597C38.8273 60.5608 39.1849 63.3308 40.1292 63.4593" stroke="#FFC83A" stroke-width="0.722349" stroke-linecap="round" stroke-linejoin="round"/>
<path d="M49.3428 59.6672C48.2812 60.0247 44.9175 60.5105 43.3586 61.1695" stroke="#FFC83A" stroke-width="0.722349" stroke-linecap="round" stroke-linejoin="round"/>
<path d="M39.3806 62.2808C38.3637 62.6773 37.9558 63.1073 34.011 64.5984C31.6364 65.4976 32.8656 65.2183 30.2116 65.0731C16.6396 64.3248 12.1808 68.7423 5.13505 74.8409C2.1737 77.4098 5.2468 78.9457 4.36398 79.4259C3.17944 80.0794 2.66539 82.5981 3.16268 82.9499C4.40309 83.8323 16.215 83.7709 18.5394 83.6313" stroke="#FFC83A" stroke-width="0.722349" stroke-linecap="round" stroke-linejoin="round"/>
<path d="M30.8149 83.7653C36.0504 83.5475 39.7996 83.4972 50.0135 83.5643" stroke="#FFC83A" stroke-width="0.722349" stroke-linecap="round" stroke-linejoin="round"/>
<path d="M32.2229 65.2295C34.1617 65.3524 36.2347 65.5199 38.1735 65.6428" stroke="#FFC83A" stroke-width="0.722349" stroke-linecap="round" stroke-linejoin="round"/>
<path d="M41.47 65.7153C43.3194 65.6539 47.1524 65.5924 48.9963 65.531" stroke="#FFC83A" stroke-width="0.722349" stroke-linecap="round" stroke-linejoin="round"/>
<path d="M39.6765 63.1519C38.0618 63.7327 36.0335 64.5648 34.5249 65.3858" stroke="#FFC83A" stroke-width="0.722349" stroke-linecap="round" stroke-linejoin="round"/>
<path d="M33.9717 83.6424C40.0732 72.0093 25.5738 62.2193 17.2205 70.7081C14.3597 73.6177 12.7226 79.0405 14.9743 83.6982" stroke="#FFC83A" stroke-width="0.722349" stroke-linecap="round" stroke-linejoin="round"/>
<path d="M38.5647 63.6545C38.235 64.2633 37.9724 64.9055 37.7769 65.5701" stroke="#FFC83A" stroke-width="0.722349" stroke-linecap="round" stroke-linejoin="round"/>
<path d="M35.916 65.4863C35.1841 65.9499 34.1951 66.5977 31.3958 69.9206" stroke="#FFC83A" stroke-width="0.722349" stroke-linecap="round" stroke-linejoin="round"/>
<path d="M31.435 68.0721C27.0432 65.8996 21.9754 65.6595 18.1927 68.396C16.8182 69.3901 15.7286 70.7249 14.7229 72.0931" stroke="#FFC83A" stroke-width="0.722349" stroke-linecap="round" stroke-linejoin="round"/>
<path d="M49.1697 68.8259C40.9114 69.6301 37.3298 69.982 32.2229 70.6466" stroke="#FFC83A" stroke-width="0.722349" stroke-linecap="round" stroke-linejoin="round"/>
<path d="M49.1695 67.7649C49.1359 67.7649 31.6472 69.8871 31.3958 69.9206" stroke="#FFC83A" stroke-width="0.722349" stroke-linecap="round" stroke-linejoin="round"/>
<path d="M34.7651 81.8161C39.3916 81.8161 41.7215 81.4308 49.164 81.6877" stroke="#FFC83A" stroke-width="0.722349" stroke-linecap="round" stroke-linejoin="round"/>
<path d="M14.3599 82.1233C3.39168 82.598 3.79398 82.6483 3.1626 82.5533" stroke="#FFC83A" stroke-width="0.722349" stroke-linecap="round" stroke-linejoin="round"/>
<path d="M12.7227 68.7869C13.0189 69.6693 12.0969 70.574 9.9346 73.707C8.0181 76.4826 6.13513 80.1518 6.05132 80.7941C5.97868 81.3414 6.38098 82.0283 6.71622 82.4695" stroke="#FFC83A" stroke-width="0.722349" stroke-linecap="round" stroke-linejoin="round"/>
<path d="M10.0964 73.4727C11.4095 74.8186 11.5101 75.31 14.9575 74.1037" stroke="#FFC83A" stroke-width="0.722349" stroke-linecap="round" stroke-linejoin="round"/>
<path d="M15.4606 73.0872C14.0582 73.5172 12.4993 73.9528 11.1248 74.4722" stroke="#FFC83A" stroke-width="0.722349" stroke-linecap="round" stroke-linejoin="round"/>
<path d="M10.214 73.3049C9.33122 72.4783 8.30313 72.5677 7.00684 73.2211" stroke="#FFC83A" stroke-width="0.722349" stroke-linecap="round" stroke-linejoin="round"/>
<path d="M6.31381 80.0458C5.6042 80.2133 4.8499 79.9676 4.51465 79.2639" stroke="#FFC83A" stroke-width="0.722349" stroke-linecap="round" stroke-linejoin="round"/>
<path d="M9.21373 74.7905C7.38663 76.0136 5.43661 77.2702 4.52026 79.2639" stroke="#FFC83A" stroke-width="0.722349" stroke-linecap="round" stroke-linejoin="round"/>
<path d="M9.57138 74.2376C7.5543 74.1762 5.5931 75.0586 3.9895 76.2817" stroke="#FFC83A" stroke-width="0.722349" stroke-linecap="round" stroke-linejoin="round"/>
<path d="M9.93457 73.7017C8.9847 72.9087 6.61562 73.953 5.71045 74.3384" stroke="#FFC83A" stroke-width="0.722349" stroke-linecap="round" stroke-linejoin="round"/>
<path d="M49.1696 72.3668C44.6885 71.9982 38.0841 72.082 33.5918 72.2551" stroke="#FFC83A" stroke-width="0.722349" stroke-linecap="round" stroke-linejoin="round"/>
<path d="M44.1521 62.0017C45.1131 61.5046 48.6277 60.9127 49.6613 60.6558" stroke="#FFC83A" stroke-width="0.722349" stroke-linecap="round" stroke-linejoin="round"/>
</g>
<defs>
<clipPath id="clip0_19_1699">
<rect width="186.117" height="49.5146" fill="white" transform="translate(50.3884 40.4854)"/>
</clipPath>
</defs>
</svg>
