<svg xmlns="http://www.w3.org/2000/svg" xmlns:xlink="http://www.w3.org/1999/xlink" width="500" zoomAndPan="magnify" viewBox="0 0 375 374.999991" height="500" preserveAspectRatio="xMidYMid meet" version="1.0"><path fill="#393939" d="M 115.445312 344.539062 C 123.246094 342.867188 130.914062 340.703125 138.246094 337.886719 L 159.425781 330.035156 C 173.484375 325.078125 187.699219 320.539062 202.070312 316.574219 C 230.765625 308.699219 260.03125 302.570312 289.398438 300.820312 C 304.007812 300.273438 318.847656 300.535156 332.621094 304.578125 C 339.535156 306.480469 346.082031 309.535156 351.636719 314.046875 C 357.21875 318.53125 361.523438 324.792969 364 332.042969 C 363.503906 324.402344 360.402344 316.707031 355.15625 310.523438 C 349.96875 304.289062 342.976562 299.726562 335.726562 296.335938 C 328.371094 293.023438 320.648438 290.855469 312.851562 289.316406 C 305.050781 287.832031 297.199219 287.207031 289.347656 286.8125 C 273.671875 286.1875 258.046875 287.363281 242.710938 289.605469 C 227.347656 291.847656 212.191406 295.136719 197.296875 299.28125 C 182.40625 303.457031 167.769531 308.386719 153.425781 314.148438 C 149.878906 315.664062 146.277344 317.070312 142.757812 318.636719 L 132.375 323.253906 C 125.699219 326.253906 118.890625 328.835938 112.03125 331.027344 C 105.171875 333.21875 98.152344 334.601562 91.214844 335.199219 C 84.277344 335.773438 77.363281 335.09375 71.027344 332.722656 C 64.660156 330.402344 59.078125 325.992188 54.878906 320.175781 C 50.707031 314.332031 47.8125 307.265625 46.378906 299.777344 C 45.828125 307.421875 47.238281 315.324219 50.601562 322.652344 C 53.941406 330.007812 59.886719 336.453125 67.269531 340.652344 C 74.703125 344.71875 83.15625 346.519531 91.34375 346.910156 C 99.5625 347.277344 107.648438 346.179688 115.445312 344.539062 Z M 115.445312 344.539062 " fill-opacity="1" fill-rule="nonzero"/><path fill="#c2a26b" d="M 366.007812 344.433594 C 363.035156 337.835938 358.054688 332.277344 352.550781 327.558594 C 341.125 318.429688 327.167969 313.367188 313.34375 310.628906 C 306.382812 308.984375 299.417969 308.542969 292.398438 307.757812 C 285.253906 307.34375 278.027344 307.34375 270.933594 308.097656 C 256.640625 309.375 242.894531 313.054688 229.695312 317.515625 C 203.296875 326.722656 179.457031 340.023438 155.539062 351.347656 C 143.539062 356.902344 131.515625 362.222656 118.890625 365.171875 C 106.316406 368.378906 93.066406 368.613281 79.867188 364.960938 C 91.425781 372.371094 106.136719 374.925781 120.195312 373.882812 C 127.238281 373.335938 134.175781 372.054688 140.984375 370.464844 C 147.765625 368.796875 154.390625 366.683594 160.886719 364.386719 C 186.8125 355.023438 210.914062 343.050781 235.589844 334.441406 C 241.746094 332.355469 247.925781 330.320312 254.160156 328.78125 C 257.265625 327.894531 260.394531 327.296875 263.523438 326.566406 C 266.65625 326.042969 269.785156 325.339844 272.941406 324.976562 C 279.226562 323.929688 285.539062 323.695312 291.878906 323.539062 C 298.320312 323.851562 304.894531 323.644531 311.207031 324.53125 C 323.933594 325.835938 336.636719 328.46875 347.515625 334.730469 C 352.941406 337.808594 357.921875 341.824219 361.757812 346.9375 L 364.417969 350.953125 C 365.121094 352.390625 365.984375 353.824219 366.554688 355.335938 C 367.914062 358.335938 368.800781 361.570312 369.242188 364.960938 C 370.3125 358.207031 368.980469 350.953125 366.007812 344.433594 Z M 366.007812 344.433594 " fill-opacity="1" fill-rule="nonzero"/><path fill="#393939" d="M 256.898438 280.738281 C 267.644531 279.695312 278.472656 279.199219 289.347656 279.640625 C 297.199219 280.058594 305.050781 280.683594 312.851562 282.144531 C 315.25 282.613281 317.625 283.1875 319.996094 283.789062 L 319.996094 167.925781 L 256.875 142.492188 L 256.875 280.738281 Z M 256.898438 280.738281 " fill-opacity="1" fill-rule="nonzero"/><path fill="#393939" d="M 197.296875 292.109375 C 202.566406 290.648438 207.886719 289.316406 213.234375 288.09375 L 213.234375 159.523438 L 245.527344 142.464844 L 245.527344 82.082031 L 182.71875 64.738281 L 182.71875 296.515625 C 187.570312 294.980469 192.421875 293.492188 197.296875 292.109375 Z M 197.296875 292.109375 " fill-opacity="1" fill-rule="nonzero"/><path fill="#393939" d="M 120.976562 320.722656 C 124.8125 319.289062 128.621094 317.777344 132.375 316.082031 L 142.757812 311.464844 C 146.277344 309.898438 149.878906 308.464844 153.425781 306.976562 C 156.242188 305.855469 159.085938 304.761719 161.953125 303.691406 L 161.953125 146.222656 L 120.976562 120.789062 Z M 120.976562 320.722656 " fill-opacity="1" fill-rule="nonzero"/><path fill="#c2a26b" d="M 15.78125 161.820312 C 15.78125 81.117188 81.199219 15.699219 161.902344 15.699219 C 221.765625 15.699219 273.175781 51.695312 295.765625 103.234375 C 275.417969 43.242188 218.714844 0.0742188 151.886719 0.0742188 C 68 0.0742188 0 68.074219 0 151.960938 C 0 219.542969 44.132812 276.773438 105.171875 296.492188 C 52.636719 274.347656 15.78125 222.386719 15.78125 161.820312 Z M 15.78125 161.820312 " fill-opacity="1" fill-rule="nonzero"/></svg>