<svg xmlns="http://www.w3.org/2000/svg" xmlns:xlink="http://www.w3.org/1999/xlink" width="100" zoomAndPan="magnify" viewBox="0 0 75 37.5" height="50" preserveAspectRatio="xMidYMid meet" version="1.0"><defs><g/><clipPath id="b963985340"><path d="M 9 28 L 33.652344 28 L 33.652344 34 L 9 34 Z M 9 28 " clip-rule="nonzero"/></clipPath><clipPath id="dba90eb1c7"><path d="M 3.105469 3.3125 L 27.101562 3.3125 L 27.101562 27.414062 L 3.105469 27.414062 Z M 3.105469 3.3125 " clip-rule="nonzero"/></clipPath><clipPath id="12bb8cb81d"><path d="M 70 20 L 74.503906 20 L 74.503906 26 L 70 26 Z M 70 20 " clip-rule="nonzero"/></clipPath></defs><path fill="#ffffff" d="M 12.460938 31.226562 C 13.09375 31.089844 13.714844 30.914062 14.308594 30.6875 L 16.023438 30.050781 C 17.164062 29.648438 18.3125 29.28125 19.480469 28.960938 C 21.804688 28.324219 24.175781 27.824219 26.554688 27.683594 C 27.738281 27.640625 28.941406 27.660156 30.054688 27.988281 C 30.617188 28.144531 31.144531 28.390625 31.597656 28.753906 C 32.046875 29.117188 32.398438 29.625 32.597656 30.214844 C 32.558594 29.59375 32.304688 28.972656 31.882812 28.46875 C 31.460938 27.964844 30.894531 27.59375 30.308594 27.320312 C 29.710938 27.050781 29.085938 26.878906 28.453125 26.753906 C 27.820312 26.632812 27.1875 26.582031 26.550781 26.550781 C 25.28125 26.5 24.015625 26.59375 22.769531 26.773438 C 21.527344 26.957031 20.296875 27.222656 19.09375 27.558594 C 17.886719 27.898438 16.699219 28.296875 15.539062 28.765625 C 15.25 28.886719 14.957031 29 14.671875 29.128906 L 13.832031 29.5 C 13.289062 29.746094 12.738281 29.953125 12.183594 30.132812 C 11.628906 30.308594 11.058594 30.421875 10.496094 30.46875 C 9.933594 30.515625 9.375 30.460938 8.863281 30.269531 C 8.347656 30.082031 7.894531 29.722656 7.554688 29.253906 C 7.214844 28.777344 6.980469 28.207031 6.863281 27.601562 C 6.820312 28.21875 6.933594 28.859375 7.207031 29.453125 C 7.476562 30.050781 7.960938 30.570312 8.558594 30.910156 C 9.160156 31.242188 9.84375 31.386719 10.507812 31.417969 C 11.171875 31.449219 11.828125 31.359375 12.460938 31.226562 Z M 12.460938 31.226562 " fill-opacity="1" fill-rule="nonzero"/><g clip-path="url(#b963985340)"><path fill="#c2a26b" d="M 32.761719 31.21875 C 32.519531 30.683594 32.117188 30.234375 31.671875 29.851562 C 30.746094 29.109375 29.613281 28.699219 28.492188 28.480469 C 27.929688 28.34375 27.367188 28.308594 26.796875 28.246094 C 26.21875 28.210938 25.632812 28.210938 25.058594 28.273438 C 23.898438 28.378906 22.785156 28.675781 21.714844 29.035156 C 19.578125 29.78125 17.644531 30.859375 15.707031 31.777344 C 14.738281 32.226562 13.761719 32.660156 12.738281 32.898438 C 11.722656 33.15625 10.648438 33.175781 9.578125 32.878906 C 10.515625 33.480469 11.707031 33.6875 12.84375 33.601562 C 13.414062 33.558594 13.976562 33.457031 14.527344 33.328125 C 15.078125 33.191406 15.617188 33.019531 16.140625 32.835938 C 18.242188 32.074219 20.195312 31.105469 22.195312 30.40625 C 22.691406 30.238281 23.195312 30.074219 23.699219 29.949219 C 23.949219 29.878906 24.203125 29.828125 24.457031 29.769531 C 24.710938 29.726562 24.964844 29.671875 25.21875 29.640625 C 25.730469 29.554688 26.242188 29.539062 26.753906 29.523438 C 27.277344 29.550781 27.808594 29.53125 28.320312 29.605469 C 29.351562 29.710938 30.382812 29.925781 31.261719 30.429688 C 31.703125 30.679688 32.105469 31.007812 32.417969 31.421875 L 32.632812 31.746094 C 32.6875 31.863281 32.757812 31.976562 32.804688 32.101562 C 32.914062 32.34375 32.988281 32.605469 33.023438 32.878906 C 33.109375 32.332031 33 31.746094 32.761719 31.21875 Z M 32.761719 31.21875 " fill-opacity="1" fill-rule="nonzero"/></g><path fill="#ffffff" d="M 23.921875 26.058594 C 24.792969 25.972656 25.667969 25.933594 26.550781 25.96875 C 27.1875 26.003906 27.820312 26.050781 28.453125 26.171875 C 28.648438 26.207031 28.839844 26.253906 29.03125 26.304688 L 29.03125 16.917969 L 23.917969 14.855469 L 23.917969 26.058594 Z M 23.921875 26.058594 " fill-opacity="1" fill-rule="nonzero"/><path fill="#ffffff" d="M 19.09375 26.976562 C 19.519531 26.859375 19.949219 26.753906 20.382812 26.652344 L 20.382812 16.234375 L 23 14.855469 L 23 9.960938 L 17.910156 8.554688 L 17.910156 27.335938 C 18.304688 27.210938 18.695312 27.089844 19.09375 26.976562 Z M 19.09375 26.976562 " fill-opacity="1" fill-rule="nonzero"/><path fill="#ffffff" d="M 12.910156 29.296875 C 13.21875 29.179688 13.527344 29.058594 13.832031 28.921875 L 14.671875 28.546875 C 14.957031 28.417969 15.25 28.304688 15.539062 28.183594 C 15.765625 28.09375 15.996094 28.003906 16.230469 27.917969 L 16.230469 15.160156 L 12.910156 13.097656 Z M 12.910156 29.296875 " fill-opacity="1" fill-rule="nonzero"/><g clip-path="url(#dba90eb1c7)"><path fill="#c2a26b" d="M 4.386719 16.421875 C 4.386719 9.882812 9.6875 4.582031 16.222656 4.582031 C 21.074219 4.582031 25.238281 7.5 27.070312 11.675781 C 25.421875 6.816406 20.828125 3.316406 15.414062 3.316406 C 8.617188 3.316406 3.105469 8.828125 3.105469 15.625 C 3.105469 21.097656 6.683594 25.734375 11.628906 27.332031 C 7.371094 25.539062 4.386719 21.328125 4.386719 16.421875 Z M 4.386719 16.421875 " fill-opacity="1" fill-rule="nonzero"/></g><g fill="#ffffff" fill-opacity="1"><g transform="translate(32.476175, 17.643641)"><g><path d="M 3.46875 0 L 0.34375 0 L 0.34375 -5.140625 L 1.8125 -5.140625 L 1.8125 -1.09375 L 3.296875 -1.09375 Z M 3.46875 0 "/></g></g></g><g fill="#ffffff" fill-opacity="1"><g transform="translate(36.344777, 17.643641)"><g><path d="M 2.671875 -6.8125 L 3.25 -6.46875 L 2.46875 -5.421875 L 2.1875 -5.59375 Z M 4.609375 -5.140625 L 4.609375 -2.5625 C 4.609375 -2.238281 4.570312 -1.925781 4.5 -1.625 C 4.425781 -1.320312 4.304688 -1.050781 4.140625 -0.8125 C 3.960938 -0.5625 3.734375 -0.363281 3.453125 -0.21875 C 3.171875 -0.0703125 2.820312 0 2.40625 0 C 2 0 1.65625 -0.0703125 1.375 -0.21875 C 1.09375 -0.363281 0.863281 -0.5625 0.6875 -0.8125 C 0.519531 -1.050781 0.398438 -1.320312 0.328125 -1.625 C 0.242188 -1.925781 0.203125 -2.238281 0.203125 -2.5625 L 0.203125 -5.140625 L 1.671875 -5.140625 L 1.671875 -2.5625 C 1.671875 -2.238281 1.6875 -1.960938 1.71875 -1.734375 C 1.738281 -1.503906 1.78125 -1.316406 1.84375 -1.171875 C 1.894531 -1.023438 1.96875 -0.914062 2.0625 -0.84375 C 2.15625 -0.769531 2.269531 -0.734375 2.40625 -0.734375 C 2.6875 -0.734375 2.878906 -0.878906 2.984375 -1.171875 C 3.097656 -1.460938 3.15625 -1.925781 3.15625 -2.5625 L 3.15625 -5.140625 Z M 4.609375 -5.140625 "/></g></g></g><g fill="#ffffff" fill-opacity="1"><g transform="translate(41.425826, 17.643641)"><g><path d="M 2.78125 -0.734375 C 2.914062 -0.734375 3.039062 -0.765625 3.15625 -0.828125 C 3.269531 -0.878906 3.363281 -0.941406 3.4375 -1.015625 C 3.53125 -1.085938 3.617188 -1.175781 3.703125 -1.28125 L 4.25 -0.734375 C 4.132812 -0.597656 4 -0.472656 3.84375 -0.359375 C 3.707031 -0.265625 3.535156 -0.179688 3.328125 -0.109375 C 3.117188 -0.0351562 2.875 0 2.59375 0 C 2.195312 0 1.847656 -0.0703125 1.546875 -0.21875 C 1.242188 -0.363281 1 -0.554688 0.8125 -0.796875 C 0.601562 -1.035156 0.453125 -1.3125 0.359375 -1.625 C 0.253906 -1.925781 0.203125 -2.238281 0.203125 -2.5625 C 0.203125 -2.882812 0.253906 -3.203125 0.359375 -3.515625 C 0.460938 -3.816406 0.613281 -4.085938 0.8125 -4.328125 C 1.007812 -4.578125 1.257812 -4.773438 1.5625 -4.921875 C 1.851562 -5.066406 2.195312 -5.140625 2.59375 -5.140625 C 2.875 -5.140625 3.117188 -5.101562 3.328125 -5.03125 C 3.535156 -4.945312 3.707031 -4.859375 3.84375 -4.765625 C 4 -4.660156 4.132812 -4.539062 4.25 -4.40625 L 3.703125 -3.859375 C 3.617188 -3.953125 3.53125 -4.039062 3.4375 -4.125 C 3.363281 -4.195312 3.269531 -4.265625 3.15625 -4.328125 C 3.039062 -4.378906 2.914062 -4.40625 2.78125 -4.40625 C 2.59375 -4.40625 2.429688 -4.351562 2.296875 -4.25 C 2.160156 -4.144531 2.046875 -4.003906 1.953125 -3.828125 C 1.859375 -3.660156 1.789062 -3.46875 1.75 -3.25 C 1.695312 -3.03125 1.671875 -2.804688 1.671875 -2.578125 C 1.671875 -2.347656 1.695312 -2.125 1.75 -1.90625 C 1.789062 -1.6875 1.859375 -1.488281 1.953125 -1.3125 C 2.046875 -1.132812 2.160156 -0.992188 2.296875 -0.890625 C 2.429688 -0.785156 2.59375 -0.734375 2.78125 -0.734375 Z M 2.78125 -0.734375 "/></g></g></g><g fill="#ffffff" fill-opacity="1"><g transform="translate(46.142439, 17.643641)"><g><path d="M 0.34375 -5.140625 L 1.8125 -5.140625 L 1.8125 0 L 0.34375 0 Z M 0.34375 -5.140625 "/></g></g></g><g fill="#ffffff" fill-opacity="1"><g transform="translate(48.567324, 17.643641)"><g><path d="M 2.65625 -1.46875 L 1.65625 -1.46875 L 1.234375 0 L 0.140625 0 L 1.609375 -5.140625 L 3.078125 -5.140625 L 4.546875 0 L 3.078125 0 Z M 2.453125 -2.203125 L 2.15625 -3.21875 L 1.875 -2.203125 Z M 2.453125 -2.203125 "/></g></g></g><g fill="#ffffff" fill-opacity="1"><g transform="translate(53.508204, 17.643641)"><g/></g></g><g fill="#ffffff" fill-opacity="1"><g transform="translate(55.870014, 17.643641)"><g><path d="M 2.375 -5.140625 C 2.78125 -5.140625 3.132812 -5.054688 3.4375 -4.890625 C 3.738281 -4.734375 3.988281 -4.523438 4.1875 -4.265625 C 4.375 -4.015625 4.515625 -3.738281 4.609375 -3.4375 C 4.703125 -3.132812 4.75 -2.84375 4.75 -2.5625 C 4.75 -2.238281 4.695312 -1.925781 4.59375 -1.625 C 4.476562 -1.320312 4.320312 -1.050781 4.125 -0.8125 C 3.90625 -0.5625 3.648438 -0.363281 3.359375 -0.21875 C 3.066406 -0.0703125 2.738281 0 2.375 0 L 0.34375 0 L 0.34375 -5.140625 Z M 2.1875 -0.734375 C 2.375 -0.734375 2.535156 -0.785156 2.671875 -0.890625 C 2.804688 -0.992188 2.921875 -1.132812 3.015625 -1.3125 C 3.109375 -1.476562 3.175781 -1.671875 3.21875 -1.890625 C 3.269531 -2.109375 3.296875 -2.332031 3.296875 -2.5625 C 3.296875 -2.789062 3.269531 -3.015625 3.21875 -3.234375 C 3.175781 -3.460938 3.109375 -3.660156 3.015625 -3.828125 C 2.921875 -4.003906 2.804688 -4.144531 2.671875 -4.25 C 2.535156 -4.351562 2.375 -4.40625 2.1875 -4.40625 L 1.8125 -4.40625 L 1.8125 -0.734375 Z M 2.1875 -0.734375 "/></g></g></g><g fill="#ffffff" fill-opacity="1"><g transform="translate(61.091232, 17.643641)"><g><path d="M 1.3125 -0.546875 C 1.3125 -0.398438 1.257812 -0.269531 1.15625 -0.15625 C 1.039062 -0.0507812 0.910156 0 0.765625 0 C 0.609375 0 0.476562 -0.0507812 0.375 -0.15625 C 0.257812 -0.269531 0.203125 -0.398438 0.203125 -0.546875 C 0.203125 -0.703125 0.257812 -0.832031 0.375 -0.9375 C 0.476562 -1.039062 0.609375 -1.09375 0.765625 -1.09375 C 0.910156 -1.09375 1.039062 -1.039062 1.15625 -0.9375 C 1.257812 -0.832031 1.3125 -0.703125 1.3125 -0.546875 Z M 1.3125 -0.546875 "/></g></g></g><g fill="#ffffff" fill-opacity="1"><g transform="translate(32.476175, 25.235958)"><g><path d="M 4.390625 0 L 2.921875 0 L 2.1875 -2.203125 L 1.8125 -2.203125 L 1.8125 0 L 0.34375 0 L 0.34375 -5.140625 L 2.1875 -5.140625 C 2.46875 -5.140625 2.726562 -5.117188 2.96875 -5.078125 C 3.21875 -5.023438 3.429688 -4.941406 3.609375 -4.828125 C 3.796875 -4.710938 3.941406 -4.5625 4.046875 -4.375 C 4.148438 -4.1875 4.203125 -3.953125 4.203125 -3.671875 C 4.203125 -3.367188 4.140625 -3.125 4.015625 -2.9375 C 3.890625 -2.738281 3.722656 -2.582031 3.515625 -2.46875 Z M 1.8125 -2.9375 C 1.96875 -2.9375 2.109375 -2.957031 2.234375 -3 C 2.347656 -3.039062 2.445312 -3.097656 2.53125 -3.171875 C 2.601562 -3.234375 2.660156 -3.3125 2.703125 -3.40625 C 2.734375 -3.488281 2.75 -3.578125 2.75 -3.671875 C 2.75 -3.765625 2.734375 -3.851562 2.703125 -3.9375 C 2.660156 -4.03125 2.601562 -4.113281 2.53125 -4.1875 C 2.445312 -4.25 2.347656 -4.300781 2.234375 -4.34375 C 2.109375 -4.382812 1.96875 -4.40625 1.8125 -4.40625 Z M 1.8125 -2.9375 "/></g></g></g><g fill="#ffffff" fill-opacity="1"><g transform="translate(37.332955, 25.235958)"><g><path d="M 2.5625 -5.3125 C 2.957031 -5.3125 3.300781 -5.234375 3.59375 -5.078125 C 3.882812 -4.921875 4.128906 -4.710938 4.328125 -4.453125 C 4.515625 -4.191406 4.660156 -3.898438 4.765625 -3.578125 C 4.859375 -3.253906 4.90625 -2.921875 4.90625 -2.578125 C 4.90625 -2.234375 4.859375 -1.894531 4.765625 -1.5625 C 4.660156 -1.238281 4.515625 -0.945312 4.328125 -0.6875 C 4.128906 -0.425781 3.882812 -0.21875 3.59375 -0.0625 C 3.300781 0.09375 2.957031 0.171875 2.5625 0.171875 C 2.164062 0.171875 1.820312 0.09375 1.53125 -0.0625 C 1.238281 -0.21875 0.992188 -0.425781 0.796875 -0.6875 C 0.597656 -0.945312 0.453125 -1.238281 0.359375 -1.5625 C 0.253906 -1.894531 0.203125 -2.234375 0.203125 -2.578125 C 0.203125 -2.921875 0.253906 -3.253906 0.359375 -3.578125 C 0.453125 -3.898438 0.597656 -4.191406 0.796875 -4.453125 C 0.992188 -4.710938 1.238281 -4.921875 1.53125 -5.078125 C 1.820312 -5.234375 2.164062 -5.3125 2.5625 -5.3125 Z M 2.5625 -0.625 C 2.65625 -0.625 2.75 -0.660156 2.84375 -0.734375 C 2.9375 -0.804688 3.019531 -0.921875 3.09375 -1.078125 C 3.175781 -1.234375 3.238281 -1.4375 3.28125 -1.6875 C 3.320312 -1.9375 3.34375 -2.234375 3.34375 -2.578125 C 3.34375 -2.921875 3.320312 -3.210938 3.28125 -3.453125 C 3.238281 -3.703125 3.175781 -3.90625 3.09375 -4.0625 C 3.019531 -4.226562 2.9375 -4.347656 2.84375 -4.421875 C 2.75 -4.492188 2.65625 -4.53125 2.5625 -4.53125 C 2.457031 -4.53125 2.359375 -4.492188 2.265625 -4.421875 C 2.171875 -4.347656 2.085938 -4.226562 2.015625 -4.0625 C 1.941406 -3.90625 1.882812 -3.703125 1.84375 -3.453125 C 1.800781 -3.210938 1.78125 -2.921875 1.78125 -2.578125 C 1.78125 -2.234375 1.800781 -1.9375 1.84375 -1.6875 C 1.882812 -1.4375 1.941406 -1.234375 2.015625 -1.078125 C 2.085938 -0.921875 2.171875 -0.804688 2.265625 -0.734375 C 2.359375 -0.660156 2.457031 -0.625 2.5625 -0.625 Z M 2.5625 -0.625 "/></g></g></g><g fill="#ffffff" fill-opacity="1"><g transform="translate(42.708348, 25.235958)"><g><path d="M 2.375 -5.140625 C 2.78125 -5.140625 3.132812 -5.054688 3.4375 -4.890625 C 3.738281 -4.734375 3.988281 -4.523438 4.1875 -4.265625 C 4.375 -4.015625 4.515625 -3.738281 4.609375 -3.4375 C 4.703125 -3.132812 4.75 -2.84375 4.75 -2.5625 C 4.75 -2.238281 4.695312 -1.925781 4.59375 -1.625 C 4.476562 -1.320312 4.320312 -1.050781 4.125 -0.8125 C 3.90625 -0.5625 3.648438 -0.363281 3.359375 -0.21875 C 3.066406 -0.0703125 2.738281 0 2.375 0 L 0.34375 0 L 0.34375 -5.140625 Z M 2.1875 -0.734375 C 2.375 -0.734375 2.535156 -0.785156 2.671875 -0.890625 C 2.804688 -0.992188 2.921875 -1.132812 3.015625 -1.3125 C 3.109375 -1.476562 3.175781 -1.671875 3.21875 -1.890625 C 3.269531 -2.109375 3.296875 -2.332031 3.296875 -2.5625 C 3.296875 -2.789062 3.269531 -3.015625 3.21875 -3.234375 C 3.175781 -3.460938 3.109375 -3.660156 3.015625 -3.828125 C 2.921875 -4.003906 2.804688 -4.144531 2.671875 -4.25 C 2.535156 -4.351562 2.375 -4.40625 2.1875 -4.40625 L 1.8125 -4.40625 L 1.8125 -0.734375 Z M 2.1875 -0.734375 "/></g></g></g><g fill="#ffffff" fill-opacity="1"><g transform="translate(47.929564, 25.235958)"><g><path d="M 4.390625 0 L 2.921875 0 L 2.1875 -2.203125 L 1.8125 -2.203125 L 1.8125 0 L 0.34375 0 L 0.34375 -5.140625 L 2.1875 -5.140625 C 2.46875 -5.140625 2.726562 -5.117188 2.96875 -5.078125 C 3.21875 -5.023438 3.429688 -4.941406 3.609375 -4.828125 C 3.796875 -4.710938 3.941406 -4.5625 4.046875 -4.375 C 4.148438 -4.1875 4.203125 -3.953125 4.203125 -3.671875 C 4.203125 -3.367188 4.140625 -3.125 4.015625 -2.9375 C 3.890625 -2.738281 3.722656 -2.582031 3.515625 -2.46875 Z M 1.8125 -2.9375 C 1.96875 -2.9375 2.109375 -2.957031 2.234375 -3 C 2.347656 -3.039062 2.445312 -3.097656 2.53125 -3.171875 C 2.601562 -3.234375 2.660156 -3.3125 2.703125 -3.40625 C 2.734375 -3.488281 2.75 -3.578125 2.75 -3.671875 C 2.75 -3.765625 2.734375 -3.851562 2.703125 -3.9375 C 2.660156 -4.03125 2.601562 -4.113281 2.53125 -4.1875 C 2.445312 -4.25 2.347656 -4.300781 2.234375 -4.34375 C 2.109375 -4.382812 1.96875 -4.40625 1.8125 -4.40625 Z M 1.8125 -2.9375 "/></g></g></g><g fill="#ffffff" fill-opacity="1"><g transform="translate(52.786343, 25.235958)"><g><path d="M 0.34375 -5.140625 L 1.8125 -5.140625 L 1.8125 0 L 0.34375 0 Z M 0.34375 -5.140625 "/></g></g></g><g fill="#ffffff" fill-opacity="1"><g transform="translate(55.211227, 25.235958)"><g><path d="M 4.8125 -2.9375 L 4.8125 -1.09375 C 4.6875 -0.882812 4.523438 -0.703125 4.328125 -0.546875 C 4.242188 -0.472656 4.144531 -0.40625 4.03125 -0.34375 C 3.914062 -0.28125 3.785156 -0.222656 3.640625 -0.171875 C 3.492188 -0.117188 3.335938 -0.078125 3.171875 -0.046875 C 2.992188 -0.015625 2.800781 0 2.59375 0 C 2.195312 0 1.851562 -0.0703125 1.5625 -0.21875 C 1.257812 -0.351562 1.007812 -0.539062 0.8125 -0.78125 C 0.613281 -1.007812 0.460938 -1.273438 0.359375 -1.578125 C 0.253906 -1.878906 0.203125 -2.191406 0.203125 -2.515625 C 0.203125 -2.835938 0.257812 -3.15625 0.375 -3.46875 C 0.476562 -3.78125 0.640625 -4.0625 0.859375 -4.3125 C 1.066406 -4.5625 1.332031 -4.765625 1.65625 -4.921875 C 1.976562 -5.066406 2.351562 -5.140625 2.78125 -5.140625 C 3.0625 -5.140625 3.304688 -5.09375 3.515625 -5 C 3.710938 -4.90625 3.878906 -4.796875 4.015625 -4.671875 C 4.179688 -4.535156 4.320312 -4.382812 4.4375 -4.21875 L 3.890625 -3.671875 C 3.847656 -3.804688 3.785156 -3.929688 3.703125 -4.046875 C 3.628906 -4.140625 3.535156 -4.222656 3.421875 -4.296875 C 3.296875 -4.367188 3.144531 -4.40625 2.96875 -4.40625 C 2.78125 -4.40625 2.613281 -4.347656 2.46875 -4.234375 C 2.332031 -4.117188 2.21875 -3.972656 2.125 -3.796875 C 2.03125 -3.617188 1.957031 -3.414062 1.90625 -3.1875 C 1.863281 -2.957031 1.84375 -2.722656 1.84375 -2.484375 C 1.84375 -2.265625 1.863281 -2.050781 1.90625 -1.84375 C 1.9375 -1.625 1.992188 -1.4375 2.078125 -1.28125 C 2.160156 -1.113281 2.257812 -0.984375 2.375 -0.890625 C 2.488281 -0.785156 2.625 -0.734375 2.78125 -0.734375 C 2.875 -0.734375 2.957031 -0.742188 3.03125 -0.765625 C 3.09375 -0.785156 3.144531 -0.804688 3.1875 -0.828125 C 3.238281 -0.847656 3.285156 -0.878906 3.328125 -0.921875 L 3.328125 -2.203125 L 2.40625 -2.203125 L 2.59375 -2.9375 Z M 4.8125 -2.9375 "/></g></g></g><g fill="#ffffff" fill-opacity="1"><g transform="translate(60.4815, 25.235958)"><g><path d="M 4.609375 -5.140625 L 4.609375 -2.5625 C 4.609375 -2.238281 4.570312 -1.925781 4.5 -1.625 C 4.425781 -1.320312 4.304688 -1.050781 4.140625 -0.8125 C 3.960938 -0.5625 3.734375 -0.363281 3.453125 -0.21875 C 3.171875 -0.0703125 2.820312 0 2.40625 0 C 2 0 1.65625 -0.0703125 1.375 -0.21875 C 1.09375 -0.363281 0.863281 -0.5625 0.6875 -0.8125 C 0.519531 -1.050781 0.398438 -1.320312 0.328125 -1.625 C 0.242188 -1.925781 0.203125 -2.238281 0.203125 -2.5625 L 0.203125 -5.140625 L 1.671875 -5.140625 L 1.671875 -2.5625 C 1.671875 -2.238281 1.6875 -1.960938 1.71875 -1.734375 C 1.738281 -1.503906 1.78125 -1.316406 1.84375 -1.171875 C 1.894531 -1.023438 1.96875 -0.914062 2.0625 -0.84375 C 2.15625 -0.769531 2.269531 -0.734375 2.40625 -0.734375 C 2.6875 -0.734375 2.878906 -0.878906 2.984375 -1.171875 C 3.097656 -1.460938 3.15625 -1.925781 3.15625 -2.5625 L 3.15625 -5.140625 Z M 4.609375 -5.140625 "/></g></g></g><g fill="#ffffff" fill-opacity="1"><g transform="translate(65.562547, 25.235958)"><g><path d="M 3.65625 -1.09375 L 3.46875 0 L 0.34375 0 L 0.34375 -5.140625 L 3.296875 -5.140625 L 3.46875 -4.046875 L 1.8125 -4.046875 L 1.8125 -3.125 L 3.296875 -3.125 L 3.296875 -2.015625 L 1.8125 -2.015625 L 1.8125 -1.09375 Z M 3.65625 -1.09375 "/></g></g></g><g clip-path="url(#12bb8cb81d)"><g fill="#ffffff" fill-opacity="1"><g transform="translate(69.823619, 25.235958)"><g><path d="M 2.78125 -1.09375 C 2.78125 -1.207031 2.71875 -1.3125 2.59375 -1.40625 C 2.46875 -1.5 2.3125 -1.597656 2.125 -1.703125 C 1.925781 -1.796875 1.71875 -1.898438 1.5 -2.015625 C 1.28125 -2.140625 1.070312 -2.273438 0.875 -2.421875 C 0.6875 -2.578125 0.53125 -2.753906 0.40625 -2.953125 C 0.269531 -3.160156 0.203125 -3.398438 0.203125 -3.671875 C 0.203125 -3.804688 0.238281 -3.960938 0.3125 -4.140625 C 0.382812 -4.304688 0.492188 -4.460938 0.640625 -4.609375 C 0.796875 -4.765625 0.988281 -4.894531 1.21875 -5 C 1.445312 -5.09375 1.722656 -5.140625 2.046875 -5.140625 C 2.472656 -5.140625 2.863281 -5.054688 3.21875 -4.890625 C 3.570312 -4.722656 3.914062 -4.441406 4.25 -4.046875 L 3.640625 -3.4375 C 3.578125 -3.53125 3.5 -3.632812 3.40625 -3.75 C 3.300781 -3.863281 3.191406 -3.96875 3.078125 -4.0625 C 2.953125 -4.15625 2.820312 -4.238281 2.6875 -4.3125 C 2.539062 -4.375 2.390625 -4.40625 2.234375 -4.40625 C 2.046875 -4.40625 1.90625 -4.367188 1.8125 -4.296875 C 1.71875 -4.222656 1.671875 -4.140625 1.671875 -4.046875 C 1.671875 -3.929688 1.734375 -3.828125 1.859375 -3.734375 C 1.992188 -3.640625 2.15625 -3.539062 2.34375 -3.4375 C 2.53125 -3.34375 2.738281 -3.238281 2.96875 -3.125 C 3.1875 -3.007812 3.390625 -2.875 3.578125 -2.71875 C 3.773438 -2.5625 3.9375 -2.382812 4.0625 -2.1875 C 4.1875 -1.976562 4.25 -1.738281 4.25 -1.46875 C 4.25 -1.332031 4.210938 -1.179688 4.140625 -1.015625 C 4.078125 -0.835938 3.96875 -0.675781 3.8125 -0.53125 C 3.664062 -0.375 3.476562 -0.25 3.25 -0.15625 C 3.007812 -0.0507812 2.726562 0 2.40625 0 C 2.195312 0 1.992188 -0.0195312 1.796875 -0.0625 C 1.609375 -0.09375 1.421875 -0.15625 1.234375 -0.25 C 1.054688 -0.332031 0.882812 -0.445312 0.71875 -0.59375 C 0.550781 -0.726562 0.378906 -0.894531 0.203125 -1.09375 L 0.8125 -1.71875 C 0.875 -1.613281 0.957031 -1.503906 1.0625 -1.390625 C 1.15625 -1.273438 1.265625 -1.171875 1.390625 -1.078125 C 1.515625 -0.984375 1.644531 -0.898438 1.78125 -0.828125 C 1.925781 -0.765625 2.078125 -0.734375 2.234375 -0.734375 C 2.410156 -0.734375 2.546875 -0.769531 2.640625 -0.84375 C 2.734375 -0.925781 2.78125 -1.007812 2.78125 -1.09375 Z M 2.78125 -1.09375 "/></g></g></g></g></svg>