<svg xmlns="http://www.w3.org/2000/svg" xmlns:xlink="http://www.w3.org/1999/xlink" width="100" zoomAndPan="magnify" viewBox="0 0 75 37.5" height="50" preserveAspectRatio="xMidYMid meet" version="1.0"><defs><g/><clipPath id="da9593f729"><path d="M 9 28 L 33.652344 28 L 33.652344 34 L 9 34 Z M 9 28 " clip-rule="nonzero"/></clipPath><clipPath id="b482b8da98"><path d="M 3.105469 3.3125 L 27.101562 3.3125 L 27.101562 27.414062 L 3.105469 27.414062 Z M 3.105469 3.3125 " clip-rule="nonzero"/></clipPath></defs><path fill="#d4c3a5" d="M 12.460938 31.226562 C 13.09375 31.089844 13.714844 30.914062 14.308594 30.6875 L 16.023438 30.050781 C 17.164062 29.648438 18.3125 29.28125 19.480469 28.960938 C 21.804688 28.324219 24.175781 27.824219 26.554688 27.683594 C 27.738281 27.640625 28.941406 27.660156 30.054688 27.988281 C 30.617188 28.144531 31.144531 28.390625 31.597656 28.753906 C 32.046875 29.117188 32.398438 29.625 32.597656 30.214844 C 32.558594 29.59375 32.304688 28.972656 31.882812 28.46875 C 31.460938 27.964844 30.894531 27.59375 30.308594 27.320312 C 29.710938 27.050781 29.085938 26.878906 28.453125 26.753906 C 27.820312 26.632812 27.1875 26.582031 26.550781 26.550781 C 25.28125 26.5 24.015625 26.59375 22.769531 26.773438 C 21.527344 26.957031 20.296875 27.222656 19.09375 27.558594 C 17.886719 27.898438 16.699219 28.296875 15.539062 28.765625 C 15.25 28.886719 14.957031 29 14.671875 29.128906 L 13.832031 29.5 C 13.289062 29.746094 12.738281 29.953125 12.183594 30.132812 C 11.628906 30.308594 11.058594 30.421875 10.496094 30.46875 C 9.933594 30.515625 9.375 30.460938 8.863281 30.269531 C 8.347656 30.082031 7.894531 29.722656 7.554688 29.253906 C 7.214844 28.777344 6.980469 28.207031 6.863281 27.601562 C 6.820312 28.21875 6.933594 28.859375 7.207031 29.453125 C 7.476562 30.050781 7.960938 30.570312 8.558594 30.910156 C 9.160156 31.242188 9.84375 31.386719 10.507812 31.417969 C 11.171875 31.449219 11.828125 31.359375 12.460938 31.226562 Z M 12.460938 31.226562 " fill-opacity="1" fill-rule="nonzero"/><g clip-path="url(#da9593f729)"><path fill="#c2a26b" d="M 32.761719 31.21875 C 32.519531 30.683594 32.117188 30.234375 31.671875 29.851562 C 30.746094 29.109375 29.613281 28.699219 28.492188 28.480469 C 27.929688 28.34375 27.367188 28.308594 26.796875 28.246094 C 26.21875 28.210938 25.632812 28.210938 25.058594 28.273438 C 23.898438 28.378906 22.785156 28.675781 21.714844 29.035156 C 19.578125 29.78125 17.644531 30.859375 15.707031 31.777344 C 14.738281 32.226562 13.761719 32.660156 12.738281 32.898438 C 11.722656 33.15625 10.648438 33.175781 9.578125 32.878906 C 10.515625 33.480469 11.707031 33.6875 12.84375 33.601562 C 13.414062 33.558594 13.976562 33.457031 14.527344 33.328125 C 15.078125 33.191406 15.617188 33.019531 16.140625 32.835938 C 18.242188 32.074219 20.195312 31.105469 22.195312 30.40625 C 22.691406 30.238281 23.195312 30.074219 23.699219 29.949219 C 23.949219 29.878906 24.203125 29.828125 24.457031 29.769531 C 24.710938 29.726562 24.964844 29.671875 25.21875 29.640625 C 25.730469 29.554688 26.242188 29.539062 26.753906 29.523438 C 27.277344 29.550781 27.808594 29.53125 28.320312 29.605469 C 29.351562 29.710938 30.382812 29.925781 31.261719 30.429688 C 31.703125 30.679688 32.105469 31.007812 32.417969 31.421875 L 32.632812 31.746094 C 32.6875 31.863281 32.757812 31.976562 32.804688 32.101562 C 32.914062 32.34375 32.988281 32.605469 33.023438 32.878906 C 33.109375 32.332031 33 31.746094 32.761719 31.21875 Z M 32.761719 31.21875 " fill-opacity="1" fill-rule="nonzero"/></g><path fill="#d4c3a5" d="M 23.921875 26.058594 C 24.792969 25.972656 25.667969 25.933594 26.550781 25.96875 C 27.1875 26.003906 27.820312 26.050781 28.453125 26.171875 C 28.648438 26.207031 28.839844 26.253906 29.03125 26.304688 L 29.03125 16.917969 L 23.917969 14.855469 L 23.917969 26.058594 Z M 23.921875 26.058594 " fill-opacity="1" fill-rule="nonzero"/><path fill="#d4c3a5" d="M 19.09375 26.976562 C 19.519531 26.859375 19.949219 26.753906 20.382812 26.652344 L 20.382812 16.234375 L 23 14.855469 L 23 9.960938 L 17.910156 8.554688 L 17.910156 27.335938 C 18.304688 27.210938 18.695312 27.089844 19.09375 26.976562 Z M 19.09375 26.976562 " fill-opacity="1" fill-rule="nonzero"/><path fill="#d4c3a5" d="M 12.910156 29.296875 C 13.21875 29.179688 13.527344 29.058594 13.832031 28.921875 L 14.671875 28.546875 C 14.957031 28.417969 15.25 28.304688 15.539062 28.183594 C 15.765625 28.09375 15.996094 28.003906 16.230469 27.917969 L 16.230469 15.160156 L 12.910156 13.097656 Z M 12.910156 29.296875 " fill-opacity="1" fill-rule="nonzero"/><g clip-path="url(#b482b8da98)"><path fill="#c2a26b" d="M 4.386719 16.421875 C 4.386719 9.882812 9.6875 4.582031 16.222656 4.582031 C 21.074219 4.582031 25.238281 7.5 27.070312 11.675781 C 25.421875 6.816406 20.828125 3.316406 15.414062 3.316406 C 8.617188 3.316406 3.105469 8.828125 3.105469 15.625 C 3.105469 21.097656 6.683594 25.734375 11.628906 27.332031 C 7.371094 25.539062 4.386719 21.328125 4.386719 16.421875 Z M 4.386719 16.421875 " fill-opacity="1" fill-rule="nonzero"/></g><g fill="#545454" fill-opacity="1"><g transform="translate(39.118748, 17.918665)"><g><path d="M 0 0 L 0 -4.515625 L 0.5 -4.515625 L 0.5 -0.09375 C 0.820312 -0.09375 1.109375 -0.101562 1.359375 -0.125 C 1.609375 -0.15625 1.835938 -0.191406 2.046875 -0.234375 C 2.253906 -0.273438 2.453125 -0.316406 2.640625 -0.359375 C 2.828125 -0.410156 3.019531 -0.457031 3.21875 -0.5 L 3.21875 0 Z M 0 0 "/></g></g></g><g fill="#545454" fill-opacity="1"><g transform="translate(42.912291, 17.918665)"><g><path d="M 3 -4.515625 L 3.5 -4.515625 L 3.5 0 L 3 0 L 3 -0.8125 C 2.84375 -0.644531 2.660156 -0.5 2.453125 -0.375 C 2.242188 -0.257812 2.03125 -0.164062 1.8125 -0.09375 C 1.601562 -0.03125 1.40625 0 1.21875 0 C 0.800781 0 0.492188 -0.0859375 0.296875 -0.265625 C 0.0976562 -0.441406 0 -0.738281 0 -1.15625 L 0 -4.515625 L 0.5 -4.515625 L 0.5 -1.15625 C 0.5 -0.894531 0.539062 -0.6875 0.625 -0.53125 C 0.71875 -0.382812 0.84375 -0.285156 1 -0.234375 C 1.15625 -0.179688 1.328125 -0.164062 1.515625 -0.1875 C 1.742188 -0.207031 1.976562 -0.273438 2.21875 -0.390625 C 2.46875 -0.503906 2.679688 -0.644531 2.859375 -0.8125 C 2.953125 -0.90625 3 -1.015625 3 -1.140625 Z M 1.671875 -4.78125 L 1.875 -5.4375 L 2.296875 -5.4375 L 1.78125 -4.78125 Z M 1.671875 -4.78125 "/></g></g></g><g fill="#545454" fill-opacity="1"><g transform="translate(47.109271, 17.918665)"><g><path d="M 2.25 -4.515625 C 2.414062 -4.515625 2.578125 -4.5 2.734375 -4.46875 C 2.898438 -4.4375 3.0625 -4.382812 3.21875 -4.3125 C 3.3125 -4.269531 3.40625 -4.210938 3.5 -4.140625 C 3.601562 -4.066406 3.691406 -3.976562 3.765625 -3.875 C 3.835938 -3.78125 3.875 -3.675781 3.875 -3.5625 C 3.875 -3.414062 3.828125 -3.296875 3.734375 -3.203125 C 3.648438 -3.117188 3.519531 -3.082031 3.34375 -3.09375 C 3.414062 -3.269531 3.429688 -3.4375 3.390625 -3.59375 C 3.359375 -3.757812 3.285156 -3.898438 3.171875 -4.015625 C 3.066406 -4.140625 2.929688 -4.238281 2.765625 -4.3125 C 2.609375 -4.382812 2.4375 -4.421875 2.25 -4.421875 C 2.007812 -4.421875 1.78125 -4.363281 1.5625 -4.25 C 1.351562 -4.132812 1.164062 -3.976562 1 -3.78125 C 0.84375 -3.582031 0.71875 -3.351562 0.625 -3.09375 C 0.539062 -2.832031 0.5 -2.550781 0.5 -2.25 C 0.5 -1.976562 0.535156 -1.71875 0.609375 -1.46875 C 0.691406 -1.21875 0.800781 -0.992188 0.9375 -0.796875 C 1.082031 -0.609375 1.25 -0.457031 1.4375 -0.34375 C 1.644531 -0.207031 1.863281 -0.128906 2.09375 -0.109375 C 2.320312 -0.0859375 2.546875 -0.109375 2.765625 -0.171875 C 2.984375 -0.242188 3.1875 -0.351562 3.375 -0.5 C 3.5625 -0.644531 3.726562 -0.8125 3.875 -1 L 3.875 -0.5 C 3.664062 -0.34375 3.421875 -0.21875 3.140625 -0.125 C 2.867188 -0.0390625 2.570312 0 2.25 0 C 1.945312 0 1.65625 -0.0546875 1.375 -0.171875 C 1.101562 -0.285156 0.863281 -0.445312 0.65625 -0.65625 C 0.457031 -0.863281 0.296875 -1.101562 0.171875 -1.375 C 0.0546875 -1.644531 0 -1.9375 0 -2.25 C 0 -2.5625 0.0546875 -2.851562 0.171875 -3.125 C 0.285156 -3.40625 0.445312 -3.644531 0.65625 -3.84375 C 0.863281 -4.050781 1.101562 -4.210938 1.375 -4.328125 C 1.644531 -4.453125 1.9375 -4.515625 2.25 -4.515625 Z M 2.25 -4.515625 "/></g></g></g><g fill="#545454" fill-opacity="1"><g transform="translate(51.679583, 17.918665)"><g><path d="M 0 0 L 0 -4.515625 L 0.5 -4.515625 L 0.5 0 Z M 0 0 "/></g></g></g><g fill="#545454" fill-opacity="1"><g transform="translate(52.871841, 17.918665)"><g><path d="M 2 -4.515625 L 4.015625 0 L 3.46875 0 L 2.71875 -1.65625 C 2.71875 -1.445312 2.6875 -1.242188 2.625 -1.046875 C 2.5625 -0.847656 2.460938 -0.671875 2.328125 -0.515625 C 2.203125 -0.359375 2.046875 -0.234375 1.859375 -0.140625 C 1.671875 -0.046875 1.453125 0 1.203125 0 C 0.941406 0 0.71875 -0.0546875 0.53125 -0.171875 C 0.34375 -0.285156 0.203125 -0.441406 0.109375 -0.640625 C 0.015625 -0.835938 -0.015625 -1.0625 0.015625 -1.3125 C 0.0351562 -1.5 0.0820312 -1.679688 0.15625 -1.859375 C 0.226562 -2.035156 0.3125 -2.203125 0.40625 -2.359375 C 0.507812 -2.523438 0.613281 -2.679688 0.71875 -2.828125 C 0.84375 -3.015625 0.953125 -3.191406 1.046875 -3.359375 C 1.148438 -3.523438 1.234375 -3.703125 1.296875 -3.890625 C 1.367188 -4.078125 1.414062 -4.285156 1.4375 -4.515625 Z M 2.59375 -1.96875 L 1.515625 -4.34375 C 1.472656 -4.09375 1.398438 -3.859375 1.296875 -3.640625 C 1.203125 -3.421875 1.09375 -3.195312 0.96875 -2.96875 C 0.875 -2.8125 0.78125 -2.640625 0.6875 -2.453125 C 0.59375 -2.273438 0.515625 -2.085938 0.453125 -1.890625 C 0.390625 -1.703125 0.367188 -1.515625 0.390625 -1.328125 C 0.410156 -1.128906 0.472656 -0.953125 0.578125 -0.796875 C 0.679688 -0.648438 0.820312 -0.539062 1 -0.46875 C 1.175781 -0.40625 1.382812 -0.394531 1.625 -0.4375 C 1.769531 -0.457031 1.910156 -0.519531 2.046875 -0.625 C 2.191406 -0.738281 2.316406 -0.867188 2.421875 -1.015625 C 2.523438 -1.171875 2.59375 -1.332031 2.625 -1.5 C 2.664062 -1.664062 2.65625 -1.820312 2.59375 -1.96875 Z M 2.59375 -1.96875 "/></g></g></g><g fill="#545454" fill-opacity="1"><g transform="translate(57.387959, 17.918665)"><g/></g></g><g fill="#545454" fill-opacity="1"><g transform="translate(58.857205, 17.918665)"><g><path d="M 0 -4.515625 L 1.609375 -4.515625 C 1.910156 -4.515625 2.179688 -4.453125 2.421875 -4.328125 C 2.671875 -4.210938 2.878906 -4.050781 3.046875 -3.84375 C 3.210938 -3.644531 3.34375 -3.40625 3.4375 -3.125 C 3.53125 -2.851562 3.578125 -2.5625 3.578125 -2.25 C 3.578125 -1.9375 3.53125 -1.644531 3.4375 -1.375 C 3.34375 -1.101562 3.210938 -0.863281 3.046875 -0.65625 C 2.878906 -0.445312 2.671875 -0.285156 2.421875 -0.171875 C 2.179688 -0.0546875 1.910156 0 1.609375 0 L 0 0 Z M 0.5 -4.421875 L 0.5 -0.09375 L 1.234375 -0.09375 C 1.535156 -0.09375 1.800781 -0.148438 2.03125 -0.265625 C 2.257812 -0.378906 2.453125 -0.539062 2.609375 -0.75 C 2.765625 -0.957031 2.878906 -1.1875 2.953125 -1.4375 C 3.035156 -1.695312 3.078125 -1.96875 3.078125 -2.25 C 3.078125 -2.53125 3.035156 -2.800781 2.953125 -3.0625 C 2.878906 -3.320312 2.765625 -3.550781 2.609375 -3.75 C 2.453125 -3.957031 2.257812 -4.117188 2.03125 -4.234375 C 1.800781 -4.359375 1.535156 -4.421875 1.234375 -4.421875 Z M 0.5 -4.421875 "/></g></g></g><g fill="#545454" fill-opacity="1"><g transform="translate(63.126441, 17.918665)"><g><path d="M 0.25 -0.5 C 0.320312 -0.5 0.378906 -0.472656 0.421875 -0.421875 C 0.472656 -0.378906 0.5 -0.320312 0.5 -0.25 C 0.5 -0.1875 0.472656 -0.128906 0.421875 -0.078125 C 0.378906 -0.0234375 0.320312 0 0.25 0 C 0.1875 0 0.128906 -0.0234375 0.078125 -0.078125 C 0.0234375 -0.128906 0 -0.1875 0 -0.25 C 0 -0.320312 0.0234375 -0.378906 0.078125 -0.421875 C 0.128906 -0.472656 0.1875 -0.5 0.25 -0.5 Z M 0.25 -0.5 "/></g></g></g><g fill="#545454" fill-opacity="1"><g transform="translate(33.646129, 25.947265)"><g><path d="M 0 -4.515625 L 2.171875 -4.515625 C 2.390625 -4.515625 2.59375 -4.46875 2.78125 -4.375 C 2.96875 -4.28125 3.117188 -4.144531 3.234375 -3.96875 C 3.347656 -3.800781 3.40625 -3.59375 3.40625 -3.34375 C 3.40625 -3.082031 3.34375 -2.863281 3.21875 -2.6875 C 3.09375 -2.519531 2.925781 -2.394531 2.71875 -2.3125 C 2.507812 -2.226562 2.285156 -2.1875 2.046875 -2.1875 C 2.140625 -2.144531 2.21875 -2.070312 2.28125 -1.96875 C 2.40625 -1.800781 2.515625 -1.625 2.609375 -1.4375 C 2.710938 -1.25 2.804688 -1.054688 2.890625 -0.859375 C 2.984375 -0.671875 3.078125 -0.503906 3.171875 -0.359375 C 3.203125 -0.304688 3.242188 -0.238281 3.296875 -0.15625 C 3.359375 -0.0820312 3.414062 -0.03125 3.46875 0 L 3 0 C 2.914062 0 2.851562 -0.0078125 2.8125 -0.03125 C 2.769531 -0.0625 2.738281 -0.101562 2.71875 -0.15625 C 2.5625 -0.4375 2.421875 -0.707031 2.296875 -0.96875 C 2.171875 -1.226562 2.015625 -1.5 1.828125 -1.78125 C 1.578125 -2.164062 1.28125 -2.21875 0.9375 -1.9375 L 0.890625 -2 C 1.003906 -2.09375 1.113281 -2.15625 1.21875 -2.1875 C 1.332031 -2.226562 1.445312 -2.25 1.5625 -2.25 C 1.675781 -2.257812 1.800781 -2.269531 1.9375 -2.28125 C 2.269531 -2.300781 2.515625 -2.40625 2.671875 -2.59375 C 2.828125 -2.789062 2.90625 -3.039062 2.90625 -3.34375 C 2.90625 -3.550781 2.851562 -3.734375 2.75 -3.890625 C 2.644531 -4.054688 2.507812 -4.1875 2.34375 -4.28125 C 2.1875 -4.375 2.015625 -4.421875 1.828125 -4.421875 L 0.5 -4.421875 L 0.5 0 L 0 0 Z M 0 -4.515625 "/></g></g></g><g fill="#545454" fill-opacity="1"><g transform="translate(37.686553, 25.947265)"><g><path d="M 2.1875 -4.515625 C 2.488281 -4.515625 2.769531 -4.453125 3.03125 -4.328125 C 3.289062 -4.210938 3.519531 -4.050781 3.71875 -3.84375 C 3.925781 -3.644531 4.085938 -3.40625 4.203125 -3.125 C 4.316406 -2.851562 4.375 -2.5625 4.375 -2.25 C 4.375 -1.9375 4.316406 -1.644531 4.203125 -1.375 C 4.085938 -1.101562 3.925781 -0.863281 3.71875 -0.65625 C 3.519531 -0.445312 3.289062 -0.285156 3.03125 -0.171875 C 2.769531 -0.0546875 2.488281 0 2.1875 0 C 1.882812 0 1.597656 -0.0546875 1.328125 -0.171875 C 1.066406 -0.285156 0.835938 -0.445312 0.640625 -0.65625 C 0.441406 -0.863281 0.285156 -1.101562 0.171875 -1.375 C 0.0546875 -1.644531 0 -1.9375 0 -2.25 C 0 -2.5625 0.0546875 -2.851562 0.171875 -3.125 C 0.285156 -3.40625 0.441406 -3.644531 0.640625 -3.84375 C 0.835938 -4.050781 1.066406 -4.210938 1.328125 -4.328125 C 1.597656 -4.453125 1.882812 -4.515625 2.1875 -4.515625 Z M 2.1875 -4.421875 C 1.945312 -4.421875 1.726562 -4.363281 1.53125 -4.25 C 1.332031 -4.132812 1.15625 -3.976562 1 -3.78125 C 0.84375 -3.582031 0.71875 -3.351562 0.625 -3.09375 C 0.539062 -2.832031 0.5 -2.550781 0.5 -2.25 C 0.5 -1.945312 0.539062 -1.664062 0.625 -1.40625 C 0.71875 -1.144531 0.84375 -0.914062 1 -0.71875 C 1.15625 -0.519531 1.332031 -0.363281 1.53125 -0.25 C 1.726562 -0.144531 1.945312 -0.09375 2.1875 -0.09375 C 2.414062 -0.09375 2.628906 -0.144531 2.828125 -0.25 C 3.035156 -0.363281 3.21875 -0.519531 3.375 -0.71875 C 3.53125 -0.914062 3.648438 -1.144531 3.734375 -1.40625 C 3.828125 -1.664062 3.875 -1.945312 3.875 -2.25 C 3.875 -2.550781 3.828125 -2.832031 3.734375 -3.09375 C 3.648438 -3.351562 3.53125 -3.582031 3.375 -3.78125 C 3.21875 -3.976562 3.035156 -4.132812 2.828125 -4.25 C 2.628906 -4.363281 2.414062 -4.421875 2.1875 -4.421875 Z M 2.1875 -4.421875 "/></g></g></g><g fill="#545454" fill-opacity="1"><g transform="translate(42.750628, 25.947265)"><g><path d="M 0 -4.515625 L 1.609375 -4.515625 C 1.910156 -4.515625 2.179688 -4.453125 2.421875 -4.328125 C 2.671875 -4.210938 2.878906 -4.050781 3.046875 -3.84375 C 3.210938 -3.644531 3.34375 -3.40625 3.4375 -3.125 C 3.53125 -2.851562 3.578125 -2.5625 3.578125 -2.25 C 3.578125 -1.9375 3.53125 -1.644531 3.4375 -1.375 C 3.34375 -1.101562 3.210938 -0.863281 3.046875 -0.65625 C 2.878906 -0.445312 2.671875 -0.285156 2.421875 -0.171875 C 2.179688 -0.0546875 1.910156 0 1.609375 0 L 0 0 Z M 0.5 -4.421875 L 0.5 -0.09375 L 1.234375 -0.09375 C 1.535156 -0.09375 1.800781 -0.148438 2.03125 -0.265625 C 2.257812 -0.378906 2.453125 -0.539062 2.609375 -0.75 C 2.765625 -0.957031 2.878906 -1.1875 2.953125 -1.4375 C 3.035156 -1.695312 3.078125 -1.96875 3.078125 -2.25 C 3.078125 -2.53125 3.035156 -2.800781 2.953125 -3.0625 C 2.878906 -3.320312 2.765625 -3.550781 2.609375 -3.75 C 2.453125 -3.957031 2.257812 -4.117188 2.03125 -4.234375 C 1.800781 -4.359375 1.535156 -4.421875 1.234375 -4.421875 Z M 0.5 -4.421875 "/></g></g></g><g fill="#545454" fill-opacity="1"><g transform="translate(47.019864, 25.947265)"><g><path d="M 0 -4.515625 L 2.171875 -4.515625 C 2.390625 -4.515625 2.59375 -4.46875 2.78125 -4.375 C 2.96875 -4.28125 3.117188 -4.144531 3.234375 -3.96875 C 3.347656 -3.800781 3.40625 -3.59375 3.40625 -3.34375 C 3.40625 -3.082031 3.34375 -2.863281 3.21875 -2.6875 C 3.09375 -2.519531 2.925781 -2.394531 2.71875 -2.3125 C 2.507812 -2.226562 2.285156 -2.1875 2.046875 -2.1875 C 2.140625 -2.144531 2.21875 -2.070312 2.28125 -1.96875 C 2.40625 -1.800781 2.515625 -1.625 2.609375 -1.4375 C 2.710938 -1.25 2.804688 -1.054688 2.890625 -0.859375 C 2.984375 -0.671875 3.078125 -0.503906 3.171875 -0.359375 C 3.203125 -0.304688 3.242188 -0.238281 3.296875 -0.15625 C 3.359375 -0.0820312 3.414062 -0.03125 3.46875 0 L 3 0 C 2.914062 0 2.851562 -0.0078125 2.8125 -0.03125 C 2.769531 -0.0625 2.738281 -0.101562 2.71875 -0.15625 C 2.5625 -0.4375 2.421875 -0.707031 2.296875 -0.96875 C 2.171875 -1.226562 2.015625 -1.5 1.828125 -1.78125 C 1.578125 -2.164062 1.28125 -2.21875 0.9375 -1.9375 L 0.890625 -2 C 1.003906 -2.09375 1.113281 -2.15625 1.21875 -2.1875 C 1.332031 -2.226562 1.445312 -2.25 1.5625 -2.25 C 1.675781 -2.257812 1.800781 -2.269531 1.9375 -2.28125 C 2.269531 -2.300781 2.515625 -2.40625 2.671875 -2.59375 C 2.828125 -2.789062 2.90625 -3.039062 2.90625 -3.34375 C 2.90625 -3.550781 2.851562 -3.734375 2.75 -3.890625 C 2.644531 -4.054688 2.507812 -4.1875 2.34375 -4.28125 C 2.1875 -4.375 2.015625 -4.421875 1.828125 -4.421875 L 0.5 -4.421875 L 0.5 0 L 0 0 Z M 0 -4.515625 "/></g></g></g><g fill="#545454" fill-opacity="1"><g transform="translate(51.060288, 25.947265)"><g><path d="M 0 0 L 0 -4.515625 L 0.5 -4.515625 L 0.5 0 Z M 0 0 "/></g></g></g><g fill="#545454" fill-opacity="1"><g transform="translate(52.252547, 25.947265)"><g><path d="M 2.21875 -2.375 L 3.875 -2.375 L 3.875 -2.28125 L 2.921875 -2.28125 C 3.140625 -2.238281 3.316406 -2.164062 3.453125 -2.0625 C 3.597656 -1.96875 3.703125 -1.847656 3.765625 -1.703125 C 3.835938 -1.566406 3.875 -1.425781 3.875 -1.28125 C 3.875 -1.070312 3.8125 -0.867188 3.6875 -0.671875 C 3.570312 -0.484375 3.394531 -0.320312 3.15625 -0.1875 C 2.914062 -0.0625 2.617188 0 2.265625 0 C 1.953125 0 1.65625 -0.0546875 1.375 -0.171875 C 1.101562 -0.285156 0.863281 -0.441406 0.65625 -0.640625 C 0.445312 -0.847656 0.285156 -1.085938 0.171875 -1.359375 C 0.0546875 -1.640625 0 -1.9375 0 -2.25 C 0 -2.5625 0.0546875 -2.851562 0.171875 -3.125 C 0.285156 -3.40625 0.445312 -3.644531 0.65625 -3.84375 C 0.863281 -4.050781 1.101562 -4.210938 1.375 -4.328125 C 1.644531 -4.453125 1.9375 -4.515625 2.25 -4.515625 C 2.414062 -4.515625 2.578125 -4.5 2.734375 -4.46875 C 2.898438 -4.4375 3.0625 -4.382812 3.21875 -4.3125 C 3.3125 -4.269531 3.40625 -4.210938 3.5 -4.140625 C 3.601562 -4.066406 3.691406 -3.976562 3.765625 -3.875 C 3.835938 -3.78125 3.875 -3.675781 3.875 -3.5625 C 3.875 -3.414062 3.828125 -3.296875 3.734375 -3.203125 C 3.648438 -3.117188 3.519531 -3.082031 3.34375 -3.09375 C 3.414062 -3.269531 3.429688 -3.4375 3.390625 -3.59375 C 3.359375 -3.757812 3.285156 -3.898438 3.171875 -4.015625 C 3.066406 -4.140625 2.929688 -4.238281 2.765625 -4.3125 C 2.609375 -4.382812 2.4375 -4.421875 2.25 -4.421875 C 2.007812 -4.421875 1.78125 -4.363281 1.5625 -4.25 C 1.351562 -4.132812 1.164062 -3.976562 1 -3.78125 C 0.84375 -3.582031 0.71875 -3.351562 0.625 -3.09375 C 0.539062 -2.832031 0.5 -2.550781 0.5 -2.25 C 0.5 -1.96875 0.539062 -1.695312 0.625 -1.4375 C 0.71875 -1.175781 0.84375 -0.941406 1 -0.734375 C 1.15625 -0.535156 1.335938 -0.378906 1.546875 -0.265625 C 1.753906 -0.148438 1.988281 -0.09375 2.25 -0.09375 C 2.507812 -0.09375 2.726562 -0.144531 2.90625 -0.25 C 3.082031 -0.351562 3.222656 -0.488281 3.328125 -0.65625 C 3.429688 -0.820312 3.484375 -1 3.484375 -1.1875 C 3.492188 -1.375 3.457031 -1.550781 3.375 -1.71875 C 3.289062 -1.882812 3.148438 -2.019531 2.953125 -2.125 C 2.765625 -2.226562 2.519531 -2.28125 2.21875 -2.28125 Z M 2.21875 -2.375 "/></g></g></g><g fill="#545454" fill-opacity="1"><g transform="translate(56.822858, 25.947265)"><g><path d="M 3 -4.515625 L 3.5 -4.515625 L 3.5 0 L 3 0 L 3 -0.8125 C 2.84375 -0.644531 2.660156 -0.5 2.453125 -0.375 C 2.242188 -0.257812 2.03125 -0.164062 1.8125 -0.09375 C 1.601562 -0.03125 1.40625 0 1.21875 0 C 0.800781 0 0.492188 -0.0859375 0.296875 -0.265625 C 0.0976562 -0.441406 0 -0.738281 0 -1.15625 L 0 -4.515625 L 0.5 -4.515625 L 0.5 -1.15625 C 0.5 -0.894531 0.539062 -0.6875 0.625 -0.53125 C 0.71875 -0.382812 0.84375 -0.285156 1 -0.234375 C 1.15625 -0.179688 1.328125 -0.164062 1.515625 -0.1875 C 1.742188 -0.207031 1.976562 -0.273438 2.21875 -0.390625 C 2.46875 -0.503906 2.679688 -0.644531 2.859375 -0.8125 C 2.953125 -0.90625 3 -1.015625 3 -1.140625 Z M 3 -4.515625 "/></g></g></g><g fill="#545454" fill-opacity="1"><g transform="translate(61.019839, 25.947265)"><g><path d="M 2.25 -4.515625 C 2.414062 -4.515625 2.578125 -4.5 2.734375 -4.46875 C 2.898438 -4.4375 3.0625 -4.382812 3.21875 -4.3125 C 3.3125 -4.269531 3.40625 -4.210938 3.5 -4.140625 C 3.601562 -4.066406 3.691406 -3.976562 3.765625 -3.875 C 3.835938 -3.78125 3.875 -3.675781 3.875 -3.5625 C 3.875 -3.414062 3.828125 -3.296875 3.734375 -3.203125 C 3.648438 -3.117188 3.519531 -3.082031 3.34375 -3.09375 C 3.414062 -3.269531 3.429688 -3.4375 3.390625 -3.59375 C 3.359375 -3.757812 3.285156 -3.898438 3.171875 -4.015625 C 3.066406 -4.140625 2.929688 -4.238281 2.765625 -4.3125 C 2.609375 -4.382812 2.4375 -4.421875 2.25 -4.421875 C 1.957031 -4.421875 1.6875 -4.335938 1.4375 -4.171875 C 1.195312 -4.003906 0.992188 -3.78125 0.828125 -3.5 C 0.660156 -3.226562 0.554688 -2.921875 0.515625 -2.578125 C 0.609375 -2.691406 0.710938 -2.769531 0.828125 -2.8125 C 0.953125 -2.851562 1.078125 -2.875 1.203125 -2.875 C 1.359375 -2.875 1.503906 -2.84375 1.640625 -2.78125 C 1.785156 -2.726562 1.925781 -2.671875 2.0625 -2.609375 C 2.195312 -2.554688 2.332031 -2.519531 2.46875 -2.5 C 2.582031 -2.488281 2.691406 -2.5 2.796875 -2.53125 C 2.898438 -2.5625 2.96875 -2.640625 3 -2.765625 C 3.050781 -2.585938 3.046875 -2.4375 2.984375 -2.3125 C 2.921875 -2.195312 2.820312 -2.113281 2.6875 -2.0625 C 2.5625 -2.019531 2.414062 -2.015625 2.25 -2.046875 C 2.125 -2.054688 2 -2.09375 1.875 -2.15625 C 1.757812 -2.21875 1.640625 -2.28125 1.515625 -2.34375 C 1.398438 -2.414062 1.285156 -2.472656 1.171875 -2.515625 C 1.066406 -2.566406 0.957031 -2.59375 0.84375 -2.59375 C 0.613281 -2.59375 0.5 -2.476562 0.5 -2.25 C 0.5 -1.84375 0.582031 -1.46875 0.75 -1.125 C 0.925781 -0.78125 1.15625 -0.519531 1.4375 -0.34375 C 1.644531 -0.207031 1.863281 -0.128906 2.09375 -0.109375 C 2.320312 -0.0859375 2.546875 -0.109375 2.765625 -0.171875 C 2.984375 -0.242188 3.1875 -0.351562 3.375 -0.5 C 3.5625 -0.644531 3.726562 -0.8125 3.875 -1 L 3.875 -0.5 C 3.664062 -0.34375 3.421875 -0.21875 3.140625 -0.125 C 2.867188 -0.0390625 2.570312 0 2.25 0 C 1.945312 0 1.65625 -0.0546875 1.375 -0.171875 C 1.101562 -0.285156 0.863281 -0.445312 0.65625 -0.65625 C 0.457031 -0.863281 0.296875 -1.101562 0.171875 -1.375 C 0.0546875 -1.644531 0 -1.9375 0 -2.25 C 0 -2.5625 0.0546875 -2.851562 0.171875 -3.125 C 0.285156 -3.40625 0.445312 -3.644531 0.65625 -3.84375 C 0.863281 -4.050781 1.101562 -4.210938 1.375 -4.328125 C 1.644531 -4.453125 1.9375 -4.515625 2.25 -4.515625 Z M 2.25 -4.515625 "/></g></g></g><g fill="#545454" fill-opacity="1"><g transform="translate(65.517894, 25.947265)"><g><path d="M 1.578125 0 C 1.410156 0 1.242188 -0.015625 1.078125 -0.046875 C 0.921875 -0.078125 0.765625 -0.125 0.609375 -0.1875 C 0.515625 -0.238281 0.414062 -0.300781 0.3125 -0.375 C 0.207031 -0.445312 0.117188 -0.53125 0.046875 -0.625 C -0.015625 -0.726562 -0.046875 -0.835938 -0.046875 -0.953125 C -0.046875 -1.085938 -0.00390625 -1.195312 0.078125 -1.28125 C 0.171875 -1.375 0.300781 -1.421875 0.46875 -1.421875 C 0.40625 -1.234375 0.394531 -1.054688 0.4375 -0.890625 C 0.476562 -0.722656 0.550781 -0.582031 0.65625 -0.46875 C 0.789062 -0.332031 0.953125 -0.234375 1.140625 -0.171875 C 1.335938 -0.109375 1.546875 -0.0820312 1.765625 -0.09375 C 1.984375 -0.101562 2.1875 -0.144531 2.375 -0.21875 C 2.570312 -0.289062 2.734375 -0.382812 2.859375 -0.5 C 2.992188 -0.632812 3.078125 -0.773438 3.109375 -0.921875 C 3.140625 -1.066406 3.125 -1.207031 3.0625 -1.34375 C 3.007812 -1.476562 2.921875 -1.597656 2.796875 -1.703125 C 2.679688 -1.816406 2.539062 -1.90625 2.375 -1.96875 C 2.207031 -2.019531 2.023438 -2.0625 1.828125 -2.09375 C 1.628906 -2.132812 1.425781 -2.175781 1.21875 -2.21875 C 1.019531 -2.257812 0.832031 -2.316406 0.65625 -2.390625 C 0.488281 -2.472656 0.34375 -2.585938 0.21875 -2.734375 C 0.09375 -2.878906 0.0195312 -3.050781 0 -3.25 C -0.0195312 -3.445312 0.015625 -3.628906 0.109375 -3.796875 C 0.179688 -3.941406 0.28125 -4.0625 0.40625 -4.15625 C 0.539062 -4.25 0.6875 -4.320312 0.84375 -4.375 C 1 -4.425781 1.160156 -4.460938 1.328125 -4.484375 C 1.492188 -4.503906 1.648438 -4.515625 1.796875 -4.515625 C 1.960938 -4.515625 2.125 -4.5 2.28125 -4.46875 C 2.445312 -4.4375 2.609375 -4.382812 2.765625 -4.3125 C 2.859375 -4.269531 2.957031 -4.210938 3.0625 -4.140625 C 3.164062 -4.066406 3.25 -3.976562 3.3125 -3.875 C 3.382812 -3.78125 3.421875 -3.675781 3.421875 -3.5625 C 3.421875 -3.414062 3.375 -3.296875 3.28125 -3.203125 C 3.195312 -3.117188 3.070312 -3.082031 2.90625 -3.09375 C 2.957031 -3.257812 2.96875 -3.414062 2.9375 -3.5625 C 2.914062 -3.71875 2.859375 -3.851562 2.765625 -3.96875 C 2.671875 -4.101562 2.535156 -4.207031 2.359375 -4.28125 C 2.191406 -4.351562 2.007812 -4.394531 1.8125 -4.40625 C 1.613281 -4.425781 1.421875 -4.414062 1.234375 -4.375 C 1.097656 -4.34375 0.960938 -4.289062 0.828125 -4.21875 C 0.703125 -4.144531 0.59375 -4.054688 0.5 -3.953125 C 0.40625 -3.847656 0.351562 -3.71875 0.34375 -3.5625 C 0.320312 -3.394531 0.351562 -3.253906 0.4375 -3.140625 C 0.53125 -3.035156 0.648438 -2.945312 0.796875 -2.875 C 0.941406 -2.8125 1.09375 -2.757812 1.25 -2.71875 C 1.4375 -2.675781 1.640625 -2.632812 1.859375 -2.59375 C 2.078125 -2.5625 2.285156 -2.515625 2.484375 -2.453125 C 2.691406 -2.398438 2.875 -2.3125 3.03125 -2.1875 C 3.175781 -2.0625 3.285156 -1.914062 3.359375 -1.75 C 3.441406 -1.59375 3.476562 -1.425781 3.46875 -1.25 C 3.46875 -1.082031 3.425781 -0.914062 3.34375 -0.75 C 3.257812 -0.59375 3.132812 -0.457031 2.96875 -0.34375 C 2.769531 -0.207031 2.539062 -0.113281 2.28125 -0.0625 C 2.03125 -0.0195312 1.796875 0 1.578125 0 Z M 1.578125 0 "/></g></g></g></svg>