<svg xmlns="http://www.w3.org/2000/svg" xmlns:xlink="http://www.w3.org/1999/xlink" width="500" zoomAndPan="magnify" viewBox="0 0 375 374.999991" height="500" preserveAspectRatio="xMidYMid meet" version="1.0"><defs><clipPath id="dfd2e95470"><path d="M 6.527344 4.238281 L 296 4.238281 L 296 295 L 6.527344 295 Z M 6.527344 4.238281 " clip-rule="nonzero"/></clipPath></defs><path fill="#d4c3a5" d="M 119.363281 340.980469 C 126.984375 339.347656 134.480469 337.230469 141.644531 334.480469 L 162.34375 326.804688 C 176.085938 321.960938 189.980469 317.527344 204.027344 313.652344 C 232.070312 305.953125 260.675781 299.960938 289.378906 298.253906 C 303.65625 297.71875 318.164062 297.972656 331.625 301.921875 C 338.378906 303.785156 344.777344 306.765625 350.207031 311.179688 C 355.664062 315.5625 359.871094 321.679688 362.292969 328.769531 C 361.808594 321.296875 358.773438 313.777344 353.648438 307.734375 C 348.578125 301.644531 341.746094 297.183594 334.65625 293.867188 C 327.46875 290.628906 319.921875 288.515625 312.300781 287.011719 C 304.675781 285.554688 297.003906 284.945312 289.328125 284.5625 C 274.007812 283.949219 258.738281 285.097656 243.746094 287.289062 C 228.730469 289.484375 213.917969 292.695312 199.363281 296.75 C 184.804688 300.828125 170.503906 305.644531 156.480469 311.28125 C 153.015625 312.757812 149.496094 314.136719 146.054688 315.664062 L 135.910156 320.175781 C 129.382812 323.109375 122.726562 325.632812 116.023438 327.773438 C 109.320312 329.914062 102.460938 331.265625 95.679688 331.851562 C 88.898438 332.414062 82.140625 331.75 75.949219 329.429688 C 69.726562 327.164062 64.269531 322.855469 60.167969 317.167969 C 56.089844 311.457031 53.257812 304.550781 51.855469 297.234375 C 51.320312 304.703125 52.695312 312.425781 55.984375 319.589844 C 59.25 326.78125 65.0625 333.078125 72.277344 337.179688 C 79.542969 341.160156 87.800781 342.917969 95.808594 343.300781 C 103.835938 343.65625 111.742188 342.585938 119.363281 340.980469 Z M 119.363281 340.980469 " fill-opacity="1" fill-rule="nonzero"/><path fill="#c2a26b" d="M 364.253906 340.878906 C 361.347656 334.429688 356.480469 328.996094 351.101562 324.382812 C 339.933594 315.460938 326.296875 310.515625 312.785156 307.839844 C 305.976562 306.230469 299.171875 305.796875 292.3125 305.035156 C 285.328125 304.625 278.265625 304.625 271.332031 305.363281 C 257.359375 306.613281 243.925781 310.210938 231.027344 314.570312 C 205.226562 323.566406 181.925781 336.570312 158.546875 347.632812 C 146.820312 353.0625 135.066406 358.265625 122.726562 361.144531 C 110.441406 364.28125 97.488281 364.511719 84.589844 360.941406 C 95.882812 368.179688 110.261719 370.679688 124.003906 369.660156 C 130.886719 369.125 137.667969 367.875 144.320312 366.320312 C 150.949219 364.6875 157.425781 362.625 163.773438 360.378906 C 189.113281 351.226562 212.671875 339.527344 236.785156 331.113281 C 242.804688 329.074219 248.84375 327.085938 254.9375 325.582031 C 257.972656 324.714844 261.03125 324.128906 264.089844 323.414062 C 267.148438 322.90625 270.210938 322.214844 273.292969 321.859375 C 279.4375 320.839844 285.605469 320.609375 291.800781 320.457031 C 298.097656 320.761719 304.523438 320.558594 310.691406 321.425781 C 323.132812 322.699219 335.550781 325.277344 346.179688 331.394531 C 351.484375 334.402344 356.351562 338.328125 360.101562 343.324219 L 362.699219 347.25 C 363.386719 348.652344 364.230469 350.054688 364.789062 351.535156 C 366.117188 354.464844 366.984375 357.628906 367.417969 360.941406 C 368.460938 354.339844 367.160156 347.25 364.253906 340.878906 Z M 364.253906 340.878906 " fill-opacity="1" fill-rule="nonzero"/><path fill="#d4c3a5" d="M 257.617188 278.621094 C 268.117188 277.601562 278.699219 277.117188 289.328125 277.550781 C 297.003906 277.960938 304.675781 278.570312 312.300781 280 C 314.644531 280.457031 316.964844 281.019531 319.285156 281.605469 L 319.285156 168.363281 L 257.589844 143.507812 L 257.589844 278.621094 Z M 257.617188 278.621094 " fill-opacity="1" fill-rule="nonzero"/><path fill="#d4c3a5" d="M 199.363281 289.738281 C 204.511719 288.308594 209.710938 287.011719 214.9375 285.8125 L 214.9375 160.152344 L 246.5 143.480469 L 246.5 84.460938 L 185.113281 67.507812 L 185.113281 294.046875 C 189.851562 292.542969 194.59375 291.089844 199.363281 289.738281 Z M 199.363281 289.738281 " fill-opacity="1" fill-rule="nonzero"/><path fill="#d4c3a5" d="M 124.769531 317.703125 C 128.515625 316.300781 132.238281 314.824219 135.910156 313.167969 L 146.054688 308.652344 C 149.496094 307.125 153.015625 305.722656 156.480469 304.269531 C 159.234375 303.171875 162.015625 302.101562 164.820312 301.058594 L 164.820312 147.152344 L 124.769531 122.296875 Z M 124.769531 317.703125 " fill-opacity="1" fill-rule="nonzero"/><g clip-path="url(#dfd2e95470)"><path fill="#c2a26b" d="M 21.953125 162.398438 C 21.953125 83.519531 85.890625 19.582031 164.765625 19.582031 C 223.273438 19.582031 273.523438 54.761719 295.601562 105.136719 C 275.714844 46.503906 220.292969 4.308594 154.976562 4.308594 C 72.988281 4.308594 6.527344 70.773438 6.527344 152.761719 C 6.527344 218.8125 49.664062 274.746094 109.320312 294.019531 C 57.972656 272.375 21.953125 221.59375 21.953125 162.398438 Z M 21.953125 162.398438 " fill-opacity="1" fill-rule="nonzero"/></g></svg>