<svg xmlns="http://www.w3.org/2000/svg" xmlns:xlink="http://www.w3.org/1999/xlink" width="500" zoomAndPan="magnify" viewBox="0 0 375 374.999991" height="500" preserveAspectRatio="xMidYMid meet" version="1.0"><defs><clipPath id="cd2488a341"><path d="M 4.097656 2.535156 L 296 2.535156 L 296 296 L 4.097656 296 Z M 4.097656 2.535156 " clip-rule="nonzero"/></clipPath></defs><path fill="#000000" d="M 117.980469 342.410156 C 125.675781 340.761719 133.238281 338.628906 140.46875 335.847656 L 161.363281 328.105469 C 175.234375 323.214844 189.253906 318.738281 203.433594 314.828125 C 231.738281 307.054688 260.605469 301.007812 289.578125 299.285156 C 303.988281 298.746094 318.628906 299.003906 332.214844 302.992188 C 339.035156 304.871094 345.492188 307.878906 350.972656 312.332031 C 356.480469 316.757812 360.722656 322.933594 363.167969 330.085938 C 362.679688 322.546875 359.617188 314.957031 354.445312 308.859375 C 349.324219 302.707031 342.429688 298.207031 335.277344 294.859375 C 328.019531 291.59375 320.40625 289.457031 312.710938 287.9375 C 305.015625 286.472656 297.273438 285.855469 289.527344 285.46875 C 274.0625 284.851562 258.652344 286.007812 243.519531 288.222656 C 228.367188 290.433594 213.417969 293.675781 198.722656 297.769531 C 184.03125 301.882812 169.597656 306.746094 155.445312 312.433594 C 151.945312 313.925781 148.394531 315.316406 144.921875 316.859375 L 134.679688 321.414062 C 128.09375 324.375 121.378906 326.921875 114.609375 329.082031 C 107.84375 331.242188 100.921875 332.605469 94.078125 333.199219 C 87.234375 333.765625 80.414062 333.097656 74.164062 330.753906 C 67.882812 328.464844 62.378906 324.117188 58.234375 318.378906 C 54.117188 312.613281 51.261719 305.640625 49.847656 298.257812 C 49.308594 305.796875 50.695312 313.59375 54.015625 320.824219 C 57.308594 328.078125 63.175781 334.433594 70.457031 338.578125 C 77.789062 342.589844 86.128906 344.367188 94.207031 344.75 C 102.3125 345.113281 110.289062 344.03125 117.980469 342.410156 Z M 117.980469 342.410156 " fill-opacity="1" fill-rule="nonzero"/><path fill="#150660" d="M 365.148438 342.308594 C 362.214844 335.796875 357.300781 330.316406 351.871094 325.660156 C 340.601562 316.652344 326.835938 311.664062 313.199219 308.960938 C 306.328125 307.339844 299.460938 306.902344 292.539062 306.128906 C 285.488281 305.71875 278.359375 305.71875 271.363281 306.464844 C 257.261719 307.726562 243.703125 311.351562 230.683594 315.753906 C 204.640625 324.835938 181.125 337.957031 157.53125 349.125 C 145.695312 354.605469 133.832031 359.855469 121.378906 362.761719 C 108.976562 365.929688 95.90625 366.160156 82.886719 362.558594 C 94.285156 369.863281 108.796875 372.386719 122.664062 371.355469 C 129.613281 370.816406 136.457031 369.554688 143.171875 367.988281 C 149.863281 366.339844 156.398438 364.253906 162.804688 361.992188 C 188.378906 352.753906 212.15625 340.945312 236.496094 332.453125 C 242.570312 330.394531 248.667969 328.386719 254.816406 326.867188 C 257.878906 325.992188 260.964844 325.402344 264.054688 324.683594 C 267.140625 324.167969 270.230469 323.472656 273.34375 323.113281 C 279.542969 322.082031 285.769531 321.851562 292.023438 321.695312 C 298.378906 322.003906 304.863281 321.800781 311.089844 322.675781 C 323.644531 323.960938 336.175781 326.558594 346.90625 332.734375 C 352.257812 335.773438 357.171875 339.734375 360.957031 344.777344 L 363.582031 348.738281 C 364.273438 350.15625 365.125 351.570312 365.691406 353.0625 C 367.027344 356.023438 367.902344 359.210938 368.339844 362.558594 C 369.394531 355.894531 368.082031 348.738281 365.148438 342.308594 Z M 365.148438 342.308594 " fill-opacity="1" fill-rule="nonzero"/><path fill="#000000" d="M 257.519531 279.472656 C 268.121094 278.445312 278.796875 277.957031 289.527344 278.390625 C 297.273438 278.804688 305.015625 279.421875 312.710938 280.863281 C 315.078125 281.324219 317.417969 281.890625 319.761719 282.484375 L 319.761719 168.1875 L 257.492188 143.101562 L 257.492188 279.472656 Z M 257.519531 279.472656 " fill-opacity="1" fill-rule="nonzero"/><path fill="#000000" d="M 198.722656 290.691406 C 203.921875 289.25 209.171875 287.9375 214.445312 286.730469 L 214.445312 159.902344 L 246.300781 143.074219 L 246.300781 83.507812 L 184.339844 66.398438 L 184.339844 295.039062 C 189.128906 293.523438 193.914062 292.054688 198.722656 290.691406 Z M 198.722656 290.691406 " fill-opacity="1" fill-rule="nonzero"/><path fill="#000000" d="M 123.4375 318.917969 C 127.21875 317.503906 130.976562 316.011719 134.679688 314.339844 L 144.921875 309.785156 C 148.394531 308.238281 151.945312 306.824219 155.445312 305.359375 C 158.222656 304.25 161.027344 303.171875 163.859375 302.117188 L 163.859375 146.78125 L 123.4375 121.695312 Z M 123.4375 318.917969 " fill-opacity="1" fill-rule="nonzero"/><g clip-path="url(#cd2488a341)"><path fill="#150660" d="M 19.664062 162.167969 C 19.664062 82.558594 84.199219 18.023438 163.808594 18.023438 C 222.859375 18.023438 273.574219 53.53125 295.855469 104.375 C 275.789062 45.195312 219.847656 2.613281 153.925781 2.613281 C 71.179688 2.613281 4.097656 69.691406 4.097656 152.441406 C 4.097656 219.109375 47.632812 275.5625 107.84375 295.015625 C 56.023438 273.167969 19.664062 221.914062 19.664062 162.167969 Z M 19.664062 162.167969 " fill-opacity="1" fill-rule="nonzero"/></g></svg>